  0
SECTION
  2
HEADER
  9
$ACADVER
  1
AC1009
  9
$INSBASE
 10
0.0
 20
0.0
 30
0.0
  9
$EXTMIN
 10
0.0
 20
-6.2312110053412662
 30
0.0
  9
$EXTMAX
 10
8.2529411764705891
 20
6.2312110053412644
 30
0.0
  9
$LIMMIN
 10
0.0
 20
0.0
  9
$LIMMAX
 10
420.0
 20
297.0
  9
$ORTHOMODE
 70
     0
  9
$REGENMODE
 70
     1
  9
$FILLMODE
 70
     1
  9
$QTEXTMODE
 70
     0
  9
$MIRRTEXT
 70
     1
  9
$DRAGMODE
 70
     2
  9
$LTSCALE
 40
1.0
  9
$OSMODE
 70
    37
  9
$ATTMODE
 70
     1
  9
$TEXTSIZE
 40
2.5
  9
$TRACEWID
 40
1.0
  9
$TEXTSTYLE
  7
STANDARD
  9
$CLAYER
  8
0
  9
$CELTYPE
  6
BYLAYER
  9
$CECOLOR
 62
   256
  9
$DIMSCALE
 40
1.0
  9
$DIMASZ
 40
2.5
  9
$DIMEXO
 40
0.625
  9
$DIMDLI
 40
3.75
  9
$DIMRND
 40
0.0
  9
$DIMDLE
 40
0.0
  9
$DIMEXE
 40
1.25
  9
$DIMTP
 40
0.0
  9
$DIMTM
 40
0.0
  9
$DIMTXT
 40
2.5
  9
$DIMCEN
 40
2.5
  9
$DIMTSZ
 40
0.0
  9
$DIMTOL
 70
     0
  9
$DIMLIM
 70
     0
  9
$DIMTIH
 70
     0
  9
$DIMTOH
 70
     0
  9
$DIMSE1
 70
     0
  9
$DIMSE2
 70
     0
  9
$DIMTAD
 70
     1
  9
$DIMZIN
 70
     8
  9
$DIMBLK
  1

  9
$DIMASO
 70
     1
  9
$DIMSHO
 70
     1
  9
$DIMPOST
  1

  9
$DIMAPOST
  1

  9
$DIMALT
 70
     0
  9
$DIMALTD
 70
     3
  9
$DIMALTF
 40
0.03937007874
  9
$DIMLFAC
 40
1.0
  9
$DIMTOFL
 70
     1
  9
$DIMTVP
 40
0.0
  9
$DIMTIX
 70
     0
  9
$DIMSOXD
 70
     0
  9
$DIMSAH
 70
     0
  9
$DIMBLK1
  1

  9
$DIMBLK2
  1

  9
$DIMSTYLE
  2
STANDARD
  9
$DIMCLRD
 70
     0
  9
$DIMCLRE
 70
     0
  9
$DIMCLRT
 70
     0
  9
$DIMTFAC
 40
1.0
  9
$DIMGAP
 40
0.625
  9
$LUNITS
 70
     2
  9
$LUPREC
 70
     4
  9
$SKETCHINC
 40
1.0
  9
$FILLETRAD
 40
10.0
  9
$AUNITS
 70
     0
  9
$AUPREC
 70
     2
  9
$MENU
  1
.
  9
$ELEVATION
 40
0.0
  9
$PELEVATION
 40
0.0
  9
$THICKNESS
 40
0.0
  9
$LIMCHECK
 70
     0
  9
$BLIPMODE
 70
     0
  9
$CHAMFERA
 40
0.0
  9
$CHAMFERB
 40
0.0
  9
$SKPOLY
 70
     0
  9
$TDCREATE
 40
2458531.9039930561557412
  9
$TDUPDATE
 40
2461060.9582407409325242
  9
$TDINDWG
 40
0.0245717593
  9
$TDUSRTIMER
 40
0.0245717593
  9
$USRTIMER
 70
     1
  9
$ANGBASE
 50
0.0
  9
$ANGDIR
 70
     0
  9
$PDMODE
 70
     0
  9
$PDSIZE
 40
0.0
  9
$PLINEWID
 40
0.0
  9
$COORDS
 70
     1
  9
$SPLFRAME
 70
     0
  9
$SPLINETYPE
 70
     6
  9
$SPLINESEGS
 70
     8
  9
$ATTDIA
 70
     1
  9
$ATTREQ
 70
     1
  9
$HANDLING
 70
     1
  9
$HANDSEED
  5
22A
  9
$SURFTAB1
 70
     6
  9
$SURFTAB2
 70
     6
  9
$SURFTYPE
 70
     6
  9
$SURFU
 70
     6
  9
$SURFV
 70
     6
  9
$UCSNAME
  2

  9
$UCSORG
 10
0.0
 20
0.0
 30
0.0
  9
$UCSXDIR
 10
1.0
 20
0.0
 30
0.0
  9
$UCSYDIR
 10
0.0
 20
1.0
 30
0.0
  9
$PUCSNAME
  2

  9
$PUCSORG
 10
0.0
 20
0.0
 30
0.0
  9
$PUCSXDIR
 10
1.0
 20
0.0
 30
0.0
  9
$PUCSYDIR
 10
0.0
 20
1.0
 30
0.0
  9
$USERI1
 70
     0
  9
$USERI2
 70
     0
  9
$USERI3
 70
     0
  9
$USERI4
 70
     0
  9
$USERI5
 70
     0
  9
$USERR1
 40
0.0
  9
$USERR2
 40
0.0
  9
$USERR3
 40
0.0
  9
$USERR4
 40
0.0
  9
$USERR5
 40
0.0
  9
$WORLDVIEW
 70
     1
  9
$SHADEDGE
 70
     3
  9
$SHADEDIF
 70
    70
  9
$TILEMODE
 70
     1
  9
$MAXACTVP
 70
    64
  9
$PLIMCHECK
 70
     0
  9
$PEXTMIN
 10
1.0000000000000000E+20
 20
1.0000000000000000E+20
 30
1.0000000000000000E+20
  9
$PEXTMAX
 10
-1.0000000000000000E+20
 20
-1.0000000000000000E+20
 30
-1.0000000000000000E+20
  9
$PLIMMIN
 10
0.0
 20
0.0
  9
$PLIMMAX
 10
420.0
 20
297.0
  9
$UNITMODE
 70
     0
  9
$VISRETAIN
 70
     1
  9
$PLINEGEN
 70
     0
  9
$PSLTSCALE
 70
     1
  0
ENDSEC
  0
SECTION
  2
TABLES
  0
TABLE
  2
VPORT
 70
     1
  0
VPORT
  2
*ACTIVE
 70
     0
 10
0.0
 20
0.0
 11
1.0
 21
1.0
 12
6.233132344671759
 22
0.0487029645944865
 13
0.0
 23
0.0
 14
0.5
 24
0.5
 15
0.5
 25
0.5
 16
0.0
 26
0.0
 36
1.0
 17
0.0
 27
0.0
 37
0.0
 40
16.7395818664932712
 41
2.3720642768850428
 42
50.0
 43
0.0
 44
0.0
 50
0.0
 51
0.0
 71
     0
 72
  1000
 73
     1
 74
     3
 75
     0
 76
     1
 77
     0
 78
     0
  0
ENDTAB
  0
TABLE
  2
LTYPE
 70
     1
  0
LTYPE
  2
CONTINUOUS
 70
     0
  3

 72
    65
 73
     0
 40
0.0
  0
ENDTAB
  0
TABLE
  2
LAYER
 70
    17
  0
LAYER
  2
0
 70
     0
 62
     7
  6
CONTINUOUS
  0
LAYER
  2
DEFPOINTS
 70
     0
 62
     7
  6
CONTINUOUS
  0
LAYER
  2
WALL_OUTER
 70
     0
 62
     7
  6
CONTINUOUS
  0
LAYER
  2
WALL_INNER
 70
     0
 62
     7
  6
CONTINUOUS
  0
LAYER
  2
PLASMA_TARGET
 70
     0
 62
     7
  6
CONTINUOUS
  0
LAYER
  2
AXES
 70
     0
 62
     7
  6
CONTINUOUS
  0
LAYER
  2
COILS
 70
     0
 62
     7
  6
CONTINUOUS
  0
LAYER
  2
COIL_LABELS
 70
     0
 62
     7
  6
CONTINUOUS
  0
LAYER
  2
COIL_PF1U
 70
     0
 62
     7
  6
CONTINUOUS
  0
LAYER
  2
COIL_PF1L
 70
     0
 62
     7
  6
CONTINUOUS
  0
LAYER
  2
COIL_PF2U
 70
     0
 62
     7
  6
CONTINUOUS
  0
LAYER
  2
COIL_PF2L
 70
     0
 62
     7
  6
CONTINUOUS
  0
LAYER
  2
COIL_PF3U
 70
     0
 62
     7
  6
CONTINUOUS
  0
LAYER
  2
COIL_PF3L
 70
     0
 62
     7
  6
CONTINUOUS
  0
LAYER
  2
COIL_CS
 70
     0
 62
     7
  6
CONTINUOUS
  0
ENDTAB
  0
TABLE
  2
STYLE
 70
     1
  0
STYLE
  2
STANDARD
 70
     0
 40
0.0
 41
1.0
 50
0.0
 71
     0
 42
2.5
  3
txt
  4

  0
ENDTAB
  0
TABLE
  2
VIEW
 70
     1
  0
ENDTAB
  0
TABLE
  2
UCS
 70
     0
  0
ENDTAB
  0
TABLE
  2
APPID
 70
    13
  0
APPID
  2
ACAD
 70
     0
  0
APPID
  2
HATCHBACKGROUNDCOLOR
 70
     0
  0
APPID
  2
EZDXF
 70
     0
  0
APPID
  2
ACAD_EXEMPT_FROM_CAD_STANDARDS
 70
     0
  0
APPID
  2
ACAD_PSEXT
 70
     0
  0
APPID
  2
ACADANNOTATIVE
 70
     0
  0
APPID
  2
ACAD_DSTYLE_DIMJAG
 70
     0
  0
APPID
  2
ACAD_DSTYLE_DIMTALN
 70
     0
  0
APPID
  2
ACAD_NAV_VCDISPLAY
 70
     0
  0
APPID
  2
ACAECLAYERSTANDARD
 70
     0
  0
APPID
  2
ACCMTRANSPARENCY
 70
     0
  0
APPID
  2
ACAD_DSTYLE_DIMBREAK
 70
     0
  0
APPID
  2
ACAD_MLEADERVER
 70
     0
  0
ENDTAB
  0
TABLE
  2
DIMSTYLE
 70
     3
  0
DIMSTYLE
  2
STANDARD
 70
     0
  3

  4

  5

  6

  7

 40
1.0
 41
2.5
 42
0.625
 43
3.75
 44
1.25
 45
0.0
 46
0.0
 47
0.0
 48
0.0
140
2.5
141
2.5
142
0.0
143
0.03937007874
144
1.0
145
0.0
146
1.0
147
0.625
 71
     0
 72
     0
 73
     0
 74
     0
 75
     0
 76
     0
 77
     1
 78
     8
170
     0
171
     3
172
     1
173
     0
174
     0
175
     0
176
     0
177
     0
178
     0
  0
DIMSTYLE
  2
ANNOTATIVE
 70
     0
  3

  4

  5

  6

  7

 40
0.0
 41
2.5
 42
0.625
 43
3.75
 44
1.25
 45
0.0
 46
0.0
 47
0.0
 48
0.0
140
2.5
141
2.5
142
0.0
143
0.03937007874016
144
1.0
145
0.0
146
1.0
147
0.625
 71
     0
 72
     0
 73
     0
 74
     0
 75
     0
 76
     0
 77
     1
 78
     8
170
     0
171
     3
172
     1
173
     0
174
     0
175
     0
176
     0
177
     0
178
     0
  0
DIMSTYLE
  2
ISO-25
 70
     0
  3

  4

  5

  6

  7

 40
1.0
 41
0.1
 42
0.1
 43
0.1
 44
0.1
 45
0.0
 46
0.0
 47
0.0
 48
0.0
140
0.1
141
2.5
142
0.0
143
0.03937007874016
144
1.0
145
0.0
146
1.0
147
0.1
 71
     0
 72
     0
 73
     0
 74
     0
 75
     0
 76
     0
 77
     1
 78
     8
170
     0
171
     3
172
     1
173
     0
174
     0
175
     0
176
     0
177
     0
178
     0
  0
ENDTAB
  0
ENDSEC
  0
SECTION
  2
BLOCKS
  0
BLOCK
  8
0
  2
$MODEL_SPACE
 70
     0
 10
0.0
 20
0.0
 30
0.0
  3
$MODEL_SPACE
  1

  0
ENDBLK
  5
19
  8
0
  0
BLOCK
 67
     1
  8
0
  2
$PAPER_SPACE
 70
     0
 10
0.0
 20
0.0
 30
0.0
  3
$PAPER_SPACE
  1

  0
ENDBLK
  5
1D
 67
     1
  8
0
  0
ENDSEC
  0
SECTION
  2
ENTITIES
  0
POLYLINE
  5
39
  8
COIL_PF1U
 66
     1
 10
0.0
 20
0.0
 30
0.0
 70
     1
  0
VERTEX
  5
13F
  8
COIL_PF1U
 10
7.2529411764705882
 20
-0.8
 30
0.0
  0
VERTEX
  5
140
  8
COIL_PF1U
 10
8.2529411764705891
 20
-0.8
 30
0.0
  0
VERTEX
  5
141
  8
COIL_PF1U
 10
8.2529411764705891
 20
0.8
 30
0.0
  0
VERTEX
  5
142
  8
COIL_PF1U
 10
7.2529411764705882
 20
0.8
 30
0.0
  0
VERTEX
  5
143
  8
COIL_PF1U
 10
7.2529411764705882
 20
-0.8
 30
0.0
  0
SEQEND
  5
144
  8
COIL_PF1U
  0
POLYLINE
  5
3A
  8
COILS
 66
     1
 10
0.0
 20
0.0
 30
0.0
 70
     1
  0
VERTEX
  5
145
  8
COILS
 10
7.2529411764705882
 20
-0.8
 30
0.0
  0
VERTEX
  5
146
  8
COILS
 10
8.2529411764705891
 20
-0.8
 30
0.0
  0
VERTEX
  5
147
  8
COILS
 10
8.2529411764705891
 20
0.8
 30
0.0
  0
VERTEX
  5
148
  8
COILS
 10
7.2529411764705882
 20
0.8
 30
0.0
  0
VERTEX
  5
149
  8
COILS
 10
7.2529411764705882
 20
-0.8
 30
0.0
  0
SEQEND
  5
14A
  8
COILS
  0
TEXT
  5
3B
  8
COIL_LABELS
 10
7.5029411764705882
 20
-0.075
 30
0.0
 40
0.15
  1
PF1U
 72
     1
 11
7.7529411764705882
 21
0.0
 31
0.0
 73
     2
  0
POLYLINE
  5
3D
  8
COIL_PF1L
 66
     1
 10
0.0
 20
0.0
 30
0.0
 70
     1
  0
VERTEX
  5
14B
  8
COIL_PF1L
 10
7.2529411764705882
 20
-0.8
 30
0.0
  0
VERTEX
  5
14C
  8
COIL_PF1L
 10
8.2529411764705891
 20
-0.8
 30
0.0
  0
VERTEX
  5
14D
  8
COIL_PF1L
 10
8.2529411764705891
 20
0.8
 30
0.0
  0
VERTEX
  5
14E
  8
COIL_PF1L
 10
7.2529411764705882
 20
0.8
 30
0.0
  0
VERTEX
  5
14F
  8
COIL_PF1L
 10
7.2529411764705882
 20
-0.8
 30
0.0
  0
SEQEND
  5
150
  8
COIL_PF1L
  0
POLYLINE
  5
3E
  8
COILS
 66
     1
 10
0.0
 20
0.0
 30
0.0
 70
     1
  0
VERTEX
  5
151
  8
COILS
 10
7.2529411764705882
 20
-0.8
 30
0.0
  0
VERTEX
  5
152
  8
COILS
 10
8.2529411764705891
 20
-0.8
 30
0.0
  0
VERTEX
  5
153
  8
COILS
 10
8.2529411764705891
 20
0.8
 30
0.0
  0
VERTEX
  5
154
  8
COILS
 10
7.2529411764705882
 20
0.8
 30
0.0
  0
VERTEX
  5
155
  8
COILS
 10
7.2529411764705882
 20
-0.8
 30
0.0
  0
SEQEND
  5
156
  8
COILS
  0
TEXT
  5
3F
  8
COIL_LABELS
 10
7.5029411764705882
 20
-0.075
 30
0.0
 40
0.15
  1
PF1L
 72
     1
 11
7.7529411764705882
 21
0.0
 31
0.0
 73
     2
  0
POLYLINE
  5
41
  8
COIL_PF2U
 66
     1
 10
0.0
 20
0.0
 30
0.0
 70
     1
  0
VERTEX
  5
157
  8
COIL_PF2U
 10
6.3529411764705879
 20
3.935261297011921
 30
0.0
  0
VERTEX
  5
158
  8
COIL_PF2U
 10
6.9529411764705884
 20
3.935261297011921
 30
0.0
  0
VERTEX
  5
159
  8
COIL_PF2U
 10
6.9529411764705884
 20
5.1352612970119198
 30
0.0
  0
VERTEX
  5
15A
  8
COIL_PF2U
 10
6.3529411764705879
 20
5.1352612970119198
 30
0.0
  0
VERTEX
  5
15B
  8
COIL_PF2U
 10
6.3529411764705879
 20
3.935261297011921
 30
0.0
  0
SEQEND
  5
15C
  8
COIL_PF2U
  0
POLYLINE
  5
42
  8
COILS
 66
     1
 10
0.0
 20
0.0
 30
0.0
 70
     1
  0
VERTEX
  5
15D
  8
COILS
 10
6.3529411764705879
 20
3.935261297011921
 30
0.0
  0
VERTEX
  5
15E
  8
COILS
 10
6.9529411764705884
 20
3.935261297011921
 30
0.0
  0
VERTEX
  5
15F
  8
COILS
 10
6.9529411764705884
 20
5.1352612970119198
 30
0.0
  0
VERTEX
  5
160
  8
COILS
 10
6.3529411764705879
 20
5.1352612970119198
 30
0.0
  0
VERTEX
  5
161
  8
COILS
 10
6.3529411764705879
 20
3.935261297011921
 30
0.0
  0
SEQEND
  5
162
  8
COILS
  0
TEXT
  5
43
  8
COIL_LABELS
 10
6.3779411764705882
 20
4.46026129701192
 30
0.0
 40
0.15
  1
PF2U
 72
     1
 11
6.6529411764705877
 21
4.535261297011921
 31
0.0
 73
     2
  0
POLYLINE
  5
45
  8
COIL_PF2L
 66
     1
 10
0.0
 20
0.0
 30
0.0
 70
     1
  0
VERTEX
  5
163
  8
COIL_PF2L
 10
6.3529411764705879
 20
-5.1352612970119198
 30
0.0
  0
VERTEX
  5
164
  8
COIL_PF2L
 10
6.9529411764705884
 20
-5.1352612970119198
 30
0.0
  0
VERTEX
  5
165
  8
COIL_PF2L
 10
6.9529411764705884
 20
-3.935261297011921
 30
0.0
  0
VERTEX
  5
166
  8
COIL_PF2L
 10
6.3529411764705879
 20
-3.935261297011921
 30
0.0
  0
VERTEX
  5
167
  8
COIL_PF2L
 10
6.3529411764705879
 20
-5.1352612970119198
 30
0.0
  0
SEQEND
  5
168
  8
COIL_PF2L
  0
POLYLINE
  5
46
  8
COILS
 66
     1
 10
0.0
 20
0.0
 30
0.0
 70
     1
  0
VERTEX
  5
169
  8
COILS
 10
6.3529411764705879
 20
-5.1352612970119198
 30
0.0
  0
VERTEX
  5
16A
  8
COILS
 10
6.9529411764705884
 20
-5.1352612970119198
 30
0.0
  0
VERTEX
  5
16B
  8
COILS
 10
6.9529411764705884
 20
-3.935261297011921
 30
0.0
  0
VERTEX
  5
16C
  8
COILS
 10
6.3529411764705879
 20
-3.935261297011921
 30
0.0
  0
VERTEX
  5
16D
  8
COILS
 10
6.3529411764705879
 20
-5.1352612970119198
 30
0.0
  0
SEQEND
  5
16E
  8
COILS
  0
TEXT
  5
47
  8
COIL_LABELS
 10
6.3779411764705882
 20
-4.6102612970119212
 30
0.0
 40
0.15
  1
PF2L
 72
     1
 11
6.6529411764705877
 21
-4.535261297011921
 31
0.0
 73
     2
  0
POLYLINE
  5
49
  8
COIL_PF3U
 66
     1
 10
0.0
 20
0.0
 30
0.0
 70
     1
  0
VERTEX
  5
16F
  8
COIL_PF3U
 10
1.0970945618265351
 20
3.935261297011921
 30
0.0
  0
VERTEX
  5
170
  8
COIL_PF3U
 10
1.597094561826534
 20
3.935261297011921
 30
0.0
  0
VERTEX
  5
171
  8
COIL_PF3U
 10
1.597094561826534
 20
5.1352612970119198
 30
0.0
  0
VERTEX
  5
172
  8
COIL_PF3U
 10
1.0970945618265351
 20
5.1352612970119198
 30
0.0
  0
VERTEX
  5
173
  8
COIL_PF3U
 10
1.0970945618265351
 20
3.935261297011921
 30
0.0
  0
SEQEND
  5
174
  8
COIL_PF3U
  0
POLYLINE
  5
4A
  8
COILS
 66
     1
 10
0.0
 20
0.0
 30
0.0
 70
     1
  0
VERTEX
  5
175
  8
COILS
 10
1.0970945618265351
 20
3.935261297011921
 30
0.0
  0
VERTEX
  5
176
  8
COILS
 10
1.597094561826534
 20
3.935261297011921
 30
0.0
  0
VERTEX
  5
177
  8
COILS
 10
1.597094561826534
 20
5.1352612970119198
 30
0.0
  0
VERTEX
  5
178
  8
COILS
 10
1.0970945618265351
 20
5.1352612970119198
 30
0.0
  0
VERTEX
  5
179
  8
COILS
 10
1.0970945618265351
 20
3.935261297011921
 30
0.0
  0
SEQEND
  5
17A
  8
COILS
  0
TEXT
  5
4B
  8
COIL_LABELS
 10
1.0720945618265341
 20
4.46026129701192
 30
0.0
 40
0.15
  1
PF3U
 72
     1
 11
1.347094561826534
 21
4.535261297011921
 31
0.0
 73
     2
  0
POLYLINE
  5
4D
  8
COIL_PF3L
 66
     1
 10
0.0
 20
0.0
 30
0.0
 70
     1
  0
VERTEX
  5
17B
  8
COIL_PF3L
 10
1.0970945618265351
 20
-5.1352612970119198
 30
0.0
  0
VERTEX
  5
17C
  8
COIL_PF3L
 10
1.597094561826534
 20
-5.1352612970119198
 30
0.0
  0
VERTEX
  5
17D
  8
COIL_PF3L
 10
1.597094561826534
 20
-3.935261297011921
 30
0.0
  0
VERTEX
  5
17E
  8
COIL_PF3L
 10
1.0970945618265351
 20
-3.935261297011921
 30
0.0
  0
VERTEX
  5
17F
  8
COIL_PF3L
 10
1.0970945618265351
 20
-5.1352612970119198
 30
0.0
  0
SEQEND
  5
180
  8
COIL_PF3L
  0
POLYLINE
  5
4E
  8
COILS
 66
     1
 10
0.0
 20
0.0
 30
0.0
 70
     1
  0
VERTEX
  5
181
  8
COILS
 10
1.0970945618265351
 20
-5.1352612970119198
 30
0.0
  0
VERTEX
  5
182
  8
COILS
 10
1.597094561826534
 20
-5.1352612970119198
 30
0.0
  0
VERTEX
  5
183
  8
COILS
 10
1.597094561826534
 20
-3.935261297011921
 30
0.0
  0
VERTEX
  5
184
  8
COILS
 10
1.0970945618265351
 20
-3.935261297011921
 30
0.0
  0
VERTEX
  5
185
  8
COILS
 10
1.0970945618265351
 20
-5.1352612970119198
 30
0.0
  0
SEQEND
  5
186
  8
COILS
  0
TEXT
  5
4F
  8
COIL_LABELS
 10
1.0720945618265341
 20
-4.6102612970119212
 30
0.0
 40
0.15
  1
PF3L
 72
     1
 11
1.347094561826534
 21
-4.535261297011921
 31
0.0
 73
     2
  0
POLYLINE
  5
51
  8
COIL_CS
 66
     1
 10
0.0
 20
0.0
 30
0.0
 70
     1
  0
VERTEX
  5
187
  8
COIL_CS
 10
0.2594199755796464
 20
-1.882352941176469
 30
0.0
  0
VERTEX
  5
188
  8
COIL_CS
 10
1.0376799023185841
 20
-1.882352941176469
 30
0.0
  0
VERTEX
  5
189
  8
COIL_CS
 10
1.0376799023185841
 20
1.882352941176469
 30
0.0
  0
VERTEX
  5
18A
  8
COIL_CS
 10
0.2594199755796464
 20
1.882352941176469
 30
0.0
  0
VERTEX
  5
18B
  8
COIL_CS
 10
0.2594199755796464
 20
-1.882352941176469
 30
0.0
  0
SEQEND
  5
18C
  8
COIL_CS
  0
POLYLINE
  5
52
  8
COILS
 66
     1
 10
0.0
 20
0.0
 30
0.0
 70
     1
  0
VERTEX
  5
18D
  8
COILS
 10
0.2594199755796464
 20
-1.882352941176469
 30
0.0
  0
VERTEX
  5
18E
  8
COILS
 10
1.0376799023185841
 20
-1.882352941176469
 30
0.0
  0
VERTEX
  5
18F
  8
COILS
 10
1.0376799023185841
 20
1.882352941176469
 30
0.0
  0
VERTEX
  5
190
  8
COILS
 10
0.2594199755796464
 20
1.882352941176469
 30
0.0
  0
VERTEX
  5
191
  8
COILS
 10
0.2594199755796464
 20
-1.882352941176469
 30
0.0
  0
SEQEND
  5
192
  8
COILS
  0
TEXT
  5
53
  8
COIL_LABELS
 10
0.5235499389491161
 20
-0.075
 30
0.0
 40
0.15
  1
CS
 72
     1
 11
0.6485499389491161
 21
0.0
 31
0.0
 73
     2
  0
LINE
  5
54
  8
AXES
 10
0.0
 20
0.0
 30
0.0
 11
7.1529411764705877
 21
0.0
 31
0.0
  0
LINE
  5
55
  8
AXES
 10
0.0
 20
-5.1352543226269551
 30
0.0
 11
0.0
 21
5.1352543226269551
 31
0.0
  0
LINE
  5
56
  8
AXES
 10
4.0
 20
-5.1352543226269551
 30
0.0
 11
4.0
 21
5.1352543226269551
 31
0.0
  0
POLYLINE
  5
AE
  8
WALL_INNER
 66
     1
 10
0.0
 20
0.0
 30
0.0
 70
     1
  0
VERTEX
  5
1C8
  8
WALL_INNER
 10
1.7374954995416829
 20
-1.2162202346441939
 30
0.0
 42
0.0523862768088857
  0
VERTEX
  5
1C9
  8
WALL_INNER
 10
2.0557870987718609
 20
-3.395080337710394
 30
0.0
 42
-0.0370259992008033
  0
VERTEX
  5
1CA
  8
WALL_INNER
 10
2.2321270796497181
 20
-4.388290906036671
 30
0.0
 42
-0.1614941074410814
  0
VERTEX
  5
1CB
  8
WALL_INNER
 10
2.178083480303985
 20
-4.6316498941584987
 30
0.0
 42
-0.1290091530606955
  0
VERTEX
  5
1CC
  8
WALL_INNER
 10
2.0345536045152759
 20
-4.7723505614196604
 30
0.0
 42
1.0223393228079649
  0
VERTEX
  5
1CD
  8
WALL_INNER
 10
2.2221537165697098
 20
-5.0846522275801362
 30
0.0
  0
VERTEX
  5
1CE
  8
WALL_INNER
 10
2.3001178904051351
 20
-5.0503546151899172
 30
0.0
 42
-0.3917837976382729
  0
VERTEX
  5
1CF
  8
WALL_INNER
 10
2.3429299258528311
 20
-5.0651323199072058
 30
0.0
  0
VERTEX
  5
1D0
  8
WALL_INNER
 10
2.8657289694283921
 20
-5.8059209204402569
 30
0.0
  0
VERTEX
  5
1D1
  8
WALL_INNER
 10
2.883115017090903
 20
-5.829587168327178
 30
0.0
  0
VERTEX
  5
1D2
  8
WALL_INNER
 10
3.110646429477629
 20
-5.7623905229340808
 30
0.0
  0
VERTEX
  5
1D3
  8
WALL_INNER
 10
3.110646429477629
 20
-5.2029603117273382
 30
0.0
  0
VERTEX
  5
1D4
  8
WALL_INNER
 10
3.110646429477629
 20
-5.128983798046419
 30
0.0
 42
-0.2622606590321011
  0
VERTEX
  5
1D5
  8
WALL_INNER
 10
3.213165812820125
 20
-4.9469739732883209
 30
0.0
 42
-0.0809680658296501
  0
VERTEX
  5
1D6
  8
WALL_INNER
 10
3.5579054573914171
 20
-4.80796969284438
 30
0.0
  0
VERTEX
  5
1D7
  8
WALL_INNER
 10
3.5579054573914171
 20
-4.665692798381996
 30
0.0
 42
-0.2094353940936992
  0
VERTEX
  5
1D8
  8
WALL_INNER
 10
3.7395328334937861
 20
-4.2511004564760242
 30
0.0
 42
-0.0874360093409148
  0
VERTEX
  5
1D9
  8
WALL_INNER
 10
3.9042828342057301
 20
-4.1453701149600306
 30
0.0
 42
0.0421984314302956
  0
VERTEX
  5
1DA
  8
WALL_INNER
 10
4.2326479310914227
 20
-3.9460851115049982
 30
0.0
 42
0.0630539873527315
  0
VERTEX
  5
1DB
  8
WALL_INNER
 10
5.1673177209304866
 20
-3.0961285907892471
 30
0.0
 42
0.0674436484104742
  0
VERTEX
  5
1DC
  8
WALL_INNER
 10
5.8272016178189459
 20
-2.097530558819015
 30
0.0
 42
0.0560304275001003
  0
VERTEX
  5
1DD
  8
WALL_INNER
 10
6.2153436559934114
 20
-0.9931854145272636
 30
0.0
 42
0.0872034866801337
  0
VERTEX
  5
1DE
  8
WALL_INNER
 10
6.2153436559934114
 20
0.9931854145272607
 30
0.0
 42
0.0560304275001003
  0
VERTEX
  5
1DF
  8
WALL_INNER
 10
5.8272016178189459
 20
2.0975305588190141
 30
0.0
 42
0.0674436484104742
  0
VERTEX
  5
1E0
  8
WALL_INNER
 10
5.1673177209304866
 20
3.0961285907892471
 30
0.0
 42
0.0630539873527315
  0
VERTEX
  5
1E1
  8
WALL_INNER
 10
4.2326479310914227
 20
3.9460851115049982
 30
0.0
 42
0.0421984314302956
  0
VERTEX
  5
1E2
  8
WALL_INNER
 10
3.9042828342057301
 20
4.1453701149600333
 30
0.0
 42
-0.0874360093409148
  0
VERTEX
  5
1E3
  8
WALL_INNER
 10
3.7395328334937861
 20
4.2511004564760233
 30
0.0
 42
-0.2094353940936992
  0
VERTEX
  5
1E4
  8
WALL_INNER
 10
3.5579054573914171
 20
4.665692798381996
 30
0.0
  0
VERTEX
  5
1E5
  8
WALL_INNER
 10
3.5579054573914171
 20
4.80796969284438
 30
0.0
 42
-0.0809680658296501
  0
VERTEX
  5
1E6
  8
WALL_INNER
 10
3.213165812820125
 20
4.9469739732883209
 30
0.0
 42
-0.2622606590321011
  0
VERTEX
  5
1E7
  8
WALL_INNER
 10
3.110646429477629
 20
5.128983798046419
 30
0.0
  0
VERTEX
  5
1E8
  8
WALL_INNER
 10
3.110646429477629
 20
5.2029603117273364
 30
0.0
  0
VERTEX
  5
1E9
  8
WALL_INNER
 10
3.110646429477629
 20
5.7623905229340808
 30
0.0
  0
VERTEX
  5
1EA
  8
WALL_INNER
 10
2.883115017090903
 20
5.829587168327178
 30
0.0
  0
VERTEX
  5
1EB
  8
WALL_INNER
 10
2.8657289694283921
 20
5.8059209204402551
 30
0.0
  0
VERTEX
  5
1EC
  8
WALL_INNER
 10
2.3429299258528311
 20
5.065132319907204
 30
0.0
 42
-0.3917837976382729
  0
VERTEX
  5
1ED
  8
WALL_INNER
 10
2.3001178904051351
 20
5.0503546151899146
 30
0.0
  0
VERTEX
  5
1EE
  8
WALL_INNER
 10
2.2221537165697098
 20
5.0846522275801336
 30
0.0
 42
1.0223393228079649
  0
VERTEX
  5
1EF
  8
WALL_INNER
 10
2.0345536045152759
 20
4.7723505614196586
 30
0.0
 42
-0.1290091530606955
  0
VERTEX
  5
1F0
  8
WALL_INNER
 10
2.178083480303985
 20
4.6316498941584969
 30
0.0
 42
-0.1614941074410814
  0
VERTEX
  5
1F1
  8
WALL_INNER
 10
2.2321270796497181
 20
4.388290906036671
 30
0.0
 42
-0.0370259992008033
  0
VERTEX
  5
1F2
  8
WALL_INNER
 10
2.0557870987718609
 20
3.395080337710394
 30
0.0
 42
0.0523862768088857
  0
VERTEX
  5
1F3
  8
WALL_INNER
 10
1.7374954995416829
 20
1.2162202346441939
 30
0.0
 42
0.0323582435007922
  0
SEQEND
  5
1F4
  8
WALL_INNER
  0
POLYLINE
  5
AF
  8
WALL_OUTER
 66
     1
 10
0.0
 20
0.0
 30
0.0
 70
     1
  0
VERTEX
  5
1F5
  8
WALL_OUTER
 10
7.5156960459499258
 20
0.0000000000000036
 30
0.0
 42
-0.0687518723262012
  0
VERTEX
  5
1F6
  8
WALL_OUTER
 10
7.3481634707959982
 20
-1.380469953607643
 30
0.0
 42
-0.0740404683602935
  0
VERTEX
  5
1F7
  8
WALL_OUTER
 10
6.6809111661864771
 20
-2.9475194969379559
 30
0.0
 42
-0.0789579277042184
  0
VERTEX
  5
1F8
  8
WALL_OUTER
 10
5.6503450735558989
 20
-4.1946324277951126
 30
0.0
  0
VERTEX
  5
1F9
  8
WALL_OUTER
 10
5.6503450735558989
 20
-4.6225544970839101
 30
0.0
  0
VERTEX
  5
1FA
  8
WALL_OUTER
 10
3.8850967058074728
 20
-4.6225544970839101
 30
0.0
  0
VERTEX
  5
1FB
  8
WALL_OUTER
 10
3.8850967058074728
 20
-4.833800188304167
 30
0.0
  0
VERTEX
  5
1FC
  8
WALL_OUTER
 10
3.750941504838055
 20
-4.833800188304167
 30
0.0
  0
VERTEX
  5
1FD
  8
WALL_OUTER
 10
3.750941504838055
 20
-6.2312110053412653
 30
0.0
  0
VERTEX
  5
1FE
  8
WALL_OUTER
 10
2.3465200413825649
 20
-6.2312110053412662
 30
0.0
  0
VERTEX
  5
1FF
  8
WALL_OUTER
 10
2.3465200413825649
 20
-5.8682209942921881
 30
0.0
 42
0.4422743092055734
  0
VERTEX
  5
200
  8
WALL_OUTER
 10
2.3197177811489849
 20
-5.8379292467031991
 30
0.0
 42
-0.3732280578906664
  0
VERTEX
  5
201
  8
WALL_OUTER
 10
1.3927078883698889
 20
-5.0115787701260963
 30
0.0
 42
-0.018900466636394
  0
VERTEX
  5
202
  8
WALL_OUTER
 10
1.0953260370393301
 20
-0.5388724918122998
 30
0.0
  0
VERTEX
  5
203
  8
WALL_OUTER
 10
1.0953260370393301
 20
0.0
 30
0.0
  0
VERTEX
  5
204
  8
WALL_OUTER
 10
1.0953260370393301
 20
0.5388724918122989
 30
0.0
 42
-0.018900466636394
  0
VERTEX
  5
205
  8
WALL_OUTER
 10
1.392707888369886
 20
5.0115787701260937
 30
0.0
 42
-0.3732280578906664
  0
VERTEX
  5
206
  8
WALL_OUTER
 10
2.3197177811489831
 20
5.8379292467031956
 30
0.0
 42
0.4422743092055734
  0
VERTEX
  5
207
  8
WALL_OUTER
 10
2.3465200413825631
 20
5.8682209942921864
 30
0.0
  0
VERTEX
  5
208
  8
WALL_OUTER
 10
2.3465200413825631
 20
6.2312110053412644
 30
0.0
  0
VERTEX
  5
209
  8
WALL_OUTER
 10
3.750941504838055
 20
6.2312110053412644
 30
0.0
  0
VERTEX
  5
20A
  8
WALL_OUTER
 10
3.750941504838055
 20
4.8338001883041661
 30
0.0
  0
VERTEX
  5
20B
  8
WALL_OUTER
 10
3.8850967058074728
 20
4.8338001883041661
 30
0.0
  0
VERTEX
  5
20C
  8
WALL_OUTER
 10
3.8850967058074728
 20
4.6225544970839101
 30
0.0
  0
VERTEX
  5
20D
  8
WALL_OUTER
 10
5.6503450735558989
 20
4.6225544970839101
 30
0.0
  0
VERTEX
  5
20E
  8
WALL_OUTER
 10
5.6503450735558989
 20
4.1946324277951108
 30
0.0
 42
-0.0789579277042184
  0
VERTEX
  5
20F
  8
WALL_OUTER
 10
6.6809111661864771
 20
2.9475194969379581
 30
0.0
 42
-0.0740404683602935
  0
VERTEX
  5
210
  8
WALL_OUTER
 10
7.3481634707959982
 20
1.3804699536076439
 30
0.0
 42
-0.0687518723262012
  0
SEQEND
  5
211
  8
WALL_OUTER
  0
POLYLINE
  5
B0
  8
PLASMA_TARGET
 66
     1
 10
0.0
 20
0.0
 30
0.0
 70
     1
  0
VERTEX
  5
212
  8
PLASMA_TARGET
 10
1.9981407490384751
 20
0.0000000000000053
 30
0.0
 42
0.0162243155172499
  0
VERTEX
  5
213
  8
PLASMA_TARGET
 10
2.0371048422594349
 20
-1.2004770470310091
 30
0.0
 42
0.0524753086762678
  0
VERTEX
  5
214
  8
PLASMA_TARGET
 10
2.3464806648141021
 20
-3.3209368911918671
 30
0.0
 42
-0.0036596069770715
  0
VERTEX
  5
215
  8
PLASMA_TARGET
 10
2.3715006348259031
 20
-3.4221192038485011
 30
0.0
 42
0.2125700414687611
  0
VERTEX
  5
216
  8
PLASMA_TARGET
 10
2.5537542024554121
 20
-3.6816548114234129
 30
0.0
 42
0.3162341319064286
  0
VERTEX
  5
217
  8
PLASMA_TARGET
 10
4.2533869540618969
 20
-3.5575392688847911
 30
0.0
  0
VERTEX
  5
218
  8
PLASMA_TARGET
 10
4.418990792956766
 20
-3.422119203848502
 30
0.0
 42
0.0390691010180639
  0
VERTEX
  5
219
  8
PLASMA_TARGET
 10
4.9403469686246648
 20
-2.8999460637638861
 30
0.0
 42
0.0675497393411673
  0
VERTEX
  5
21A
  8
PLASMA_TARGET
 10
5.5570578146663632
 20
-1.96706092396761
 30
0.0
 42
0.0556342861680169
  0
VERTEX
  5
21B
  8
PLASMA_TARGET
 10
5.9212204204771934
 20
-0.9335524004051423
 30
0.0
 42
0.0431588453514294
  0
VERTEX
  5
21C
  8
PLASMA_TARGET
 10
6.0019528870600416
 20
0.0000000000000018
 30
0.0
 42
0.0431588453514294
  0
VERTEX
  5
21D
  8
PLASMA_TARGET
 10
5.9212204204771934
 20
0.9335524004051423
 30
0.0
 42
0.0556342861680169
  0
VERTEX
  5
21E
  8
PLASMA_TARGET
 10
5.5570578146663632
 20
1.96706092396761
 30
0.0
 42
0.0675497393411673
  0
VERTEX
  5
21F
  8
PLASMA_TARGET
 10
4.9403469686246648
 20
2.8999460637638861
 30
0.0
 42
0.0390691010180639
  0
VERTEX
  5
220
  8
PLASMA_TARGET
 10
4.418990792956766
 20
3.422119203848502
 30
0.0
  0
VERTEX
  5
221
  8
PLASMA_TARGET
 10
4.2533869540619014
 20
3.5575392688847911
 30
0.0
 42
0.3162341319064286
  0
VERTEX
  5
222
  8
PLASMA_TARGET
 10
2.5537542024554121
 20
3.6816548114234111
 30
0.0
 42
0.2125700414687611
  0
VERTEX
  5
223
  8
PLASMA_TARGET
 10
2.3715006348259031
 20
3.4221192038485011
 30
0.0
 42
-0.0036596069770715
  0
VERTEX
  5
224
  8
PLASMA_TARGET
 10
2.3464806648141021
 20
3.320936891191868
 30
0.0
 42
0.0524753086762678
  0
VERTEX
  5
225
  8
PLASMA_TARGET
 10
2.0371048422594349
 20
1.2004770470310091
 30
0.0
 42
0.0162243155172499
  0
SEQEND
  5
226
  8
PLASMA_TARGET
  0
VIEWPORT
  5
DB
 67
     1
  8
0
 10
260.4312021947432072
 20
132.1530663910349972
 30
0.0
 40
1134.3546886711799289
 41
478.2141444163547135
 68
     1
 69
     1
1001
ACAD
1000
MVIEW
1002
{
1070
    16
1010
0.0
1020
0.0
1030
0.0
1010
0.0
1020
0.0
1030
1.0
1040
0.0
1040
478.2141444163547135
1040
260.4312021947432072
1040
132.1530663910349972
1040
50.0
1040
0.0
1040
0.0
1070
     0
1070
  1000
1070
     1
1070
     1
1070
     0
1070
     0
1070
     0
1070
     0
1040
0.0
1040
0.0
1040
0.0
1040
0.5
1040
0.5
1040
0.5
1040
0.5
1070
     0
1002
{
1002
}
1002
}
  0
ENDSEC
  0
EOF
