  0
SECTION
  2
HEADER
  9
$ACADVER
  1
AC1009
  9
$INSBASE
 10
0.0
 20
0.0
 30
0.0
  9
$EXTMIN
 10
-0.0000000000000005
 20
-7.4972680488997963
 30
0.0
  9
$EXTMAX
 10
11.67155159888447
 20
7.4972680488997927
 30
0.0
  9
$LIMMIN
 10
0.0
 20
0.0
  9
$LIMMAX
 10
420.0
 20
297.0
  9
$ORTHOMODE
 70
     0
  9
$REGENMODE
 70
     1
  9
$FILLMODE
 70
     1
  9
$QTEXTMODE
 70
     0
  9
$MIRRTEXT
 70
     1
  9
$DRAGMODE
 70
     2
  9
$LTSCALE
 40
1.0
  9
$OSMODE
 70
    37
  9
$ATTMODE
 70
     1
  9
$TEXTSIZE
 40
2.5
  9
$TRACEWID
 40
1.0
  9
$TEXTSTYLE
  7
STANDARD
  9
$CLAYER
  8
WALL_OUTER
  9
$CELTYPE
  6
BYLAYER
  9
$CECOLOR
 62
   256
  9
$DIMSCALE
 40
1.0
  9
$DIMASZ
 40
2.5
  9
$DIMEXO
 40
0.625
  9
$DIMDLI
 40
3.75
  9
$DIMRND
 40
0.0
  9
$DIMDLE
 40
0.0
  9
$DIMEXE
 40
1.25
  9
$DIMTP
 40
0.0
  9
$DIMTM
 40
0.0
  9
$DIMTXT
 40
2.5
  9
$DIMCEN
 40
2.5
  9
$DIMTSZ
 40
0.0
  9
$DIMTOL
 70
     0
  9
$DIMLIM
 70
     0
  9
$DIMTIH
 70
     0
  9
$DIMTOH
 70
     0
  9
$DIMSE1
 70
     0
  9
$DIMSE2
 70
     0
  9
$DIMTAD
 70
     1
  9
$DIMZIN
 70
     8
  9
$DIMBLK
  1

  9
$DIMASO
 70
     1
  9
$DIMSHO
 70
     1
  9
$DIMPOST
  1

  9
$DIMAPOST
  1

  9
$DIMALT
 70
     0
  9
$DIMALTD
 70
     3
  9
$DIMALTF
 40
0.03937007874
  9
$DIMLFAC
 40
1.0
  9
$DIMTOFL
 70
     1
  9
$DIMTVP
 40
0.0
  9
$DIMTIX
 70
     0
  9
$DIMSOXD
 70
     0
  9
$DIMSAH
 70
     0
  9
$DIMBLK1
  1

  9
$DIMBLK2
  1

  9
$DIMSTYLE
  2
STANDARD
  9
$DIMCLRD
 70
     0
  9
$DIMCLRE
 70
     0
  9
$DIMCLRT
 70
     0
  9
$DIMTFAC
 40
1.0
  9
$DIMGAP
 40
0.625
  9
$LUNITS
 70
     2
  9
$LUPREC
 70
     4
  9
$SKETCHINC
 40
1.0
  9
$FILLETRAD
 40
10.0
  9
$AUNITS
 70
     0
  9
$AUPREC
 70
     2
  9
$MENU
  1
.
  9
$ELEVATION
 40
0.0
  9
$PELEVATION
 40
0.0
  9
$THICKNESS
 40
0.0
  9
$LIMCHECK
 70
     0
  9
$BLIPMODE
 70
     0
  9
$CHAMFERA
 40
0.0
  9
$CHAMFERB
 40
0.0
  9
$SKPOLY
 70
     0
  9
$TDCREATE
 40
2458531.9039930561557412
  9
$TDUPDATE
 40
2461063.6889467588625848
  9
$TDINDWG
 40
0.0744097222
  9
$TDUSRTIMER
 40
0.0744097222
  9
$USRTIMER
 70
     1
  9
$ANGBASE
 50
0.0
  9
$ANGDIR
 70
     0
  9
$PDMODE
 70
     0
  9
$PDSIZE
 40
0.0
  9
$PLINEWID
 40
0.0
  9
$COORDS
 70
     1
  9
$SPLFRAME
 70
     0
  9
$SPLINETYPE
 70
     6
  9
$SPLINESEGS
 70
     8
  9
$ATTDIA
 70
     1
  9
$ATTREQ
 70
     1
  9
$HANDLING
 70
     1
  9
$HANDSEED
  5
C2D
  9
$SURFTAB1
 70
     6
  9
$SURFTAB2
 70
     6
  9
$SURFTYPE
 70
     6
  9
$SURFU
 70
     6
  9
$SURFV
 70
     6
  9
$UCSNAME
  2

  9
$UCSORG
 10
0.0
 20
0.0
 30
0.0
  9
$UCSXDIR
 10
1.0
 20
0.0
 30
0.0
  9
$UCSYDIR
 10
0.0
 20
1.0
 30
0.0
  9
$PUCSNAME
  2

  9
$PUCSORG
 10
0.0
 20
0.0
 30
0.0
  9
$PUCSXDIR
 10
1.0
 20
0.0
 30
0.0
  9
$PUCSYDIR
 10
0.0
 20
1.0
 30
0.0
  9
$USERI1
 70
     0
  9
$USERI2
 70
     0
  9
$USERI3
 70
     0
  9
$USERI4
 70
     0
  9
$USERI5
 70
     0
  9
$USERR1
 40
0.0
  9
$USERR2
 40
0.0
  9
$USERR3
 40
0.0
  9
$USERR4
 40
0.0
  9
$USERR5
 40
0.0
  9
$WORLDVIEW
 70
     1
  9
$SHADEDGE
 70
     3
  9
$SHADEDIF
 70
    70
  9
$TILEMODE
 70
     1
  9
$MAXACTVP
 70
    64
  9
$PLIMCHECK
 70
     0
  9
$PEXTMIN
 10
1.0000000000000000E+20
 20
1.0000000000000000E+20
 30
1.0000000000000000E+20
  9
$PEXTMAX
 10
-1.0000000000000000E+20
 20
-1.0000000000000000E+20
 30
-1.0000000000000000E+20
  9
$PLIMMIN
 10
0.0
 20
0.0
  9
$PLIMMAX
 10
420.0
 20
297.0
  9
$UNITMODE
 70
     0
  9
$VISRETAIN
 70
     1
  9
$PLINEGEN
 70
     0
  9
$PSLTSCALE
 70
     1
  0
ENDSEC
  0
SECTION
  2
TABLES
  0
TABLE
  2
VPORT
 70
     1
  0
VPORT
  2
*ACTIVE
 70
     0
 10
0.0
 20
0.0
 11
1.0
 21
1.0
 12
8.6868113203287862
 22
-4.4929723992926851
 13
0.0
 23
0.0
 14
0.5
 24
0.5
 15
0.5
 25
0.5
 16
0.0
 26
0.0
 36
1.0
 17
0.0
 27
0.0
 37
0.0
 40
34.8303516292540607
 41
2.3720642768850428
 42
50.0
 43
0.0
 44
0.0
 50
0.0
 51
0.0
 71
     0
 72
  1000
 73
     1
 74
     3
 75
     0
 76
     1
 77
     0
 78
     0
  0
ENDTAB
  0
TABLE
  2
LTYPE
 70
     2
  0
LTYPE
  2
CONTINUOUS
 70
     0
  3
Solid line
 72
    65
 73
     0
 40
0.0
  0
ENDTAB
  0
TABLE
  2
LAYER
 70
    21
  0
LAYER
  2
0
 70
     0
 62
     7
  6
CONTINUOUS
  0
LAYER
  2
COIL_PF1U
 70
     0
 62
     7
  6
CONTINUOUS
  0
LAYER
  2
AXES
 70
     0
 62
     7
  6
CONTINUOUS
  0
LAYER
  2
DEFPOINTS
 70
     0
 62
     7
  6
CONTINUOUS
  0
LAYER
  2
WALL_OUTER
 70
     0
 62
     7
  6
CONTINUOUS
  0
LAYER
  2
WALL_INNER
 70
     0
 62
     7
  6
CONTINUOUS
  0
LAYER
  2
PLASMA_TARGET
 70
     0
 62
     7
  6
CONTINUOUS
  0
LAYER
  2
COIL_PF1L
 70
     0
 62
     7
  6
CONTINUOUS
  0
LAYER
  2
COIL_PF2U
 70
     0
 62
     7
  6
CONTINUOUS
  0
LAYER
  2
COIL_PF2L
 70
     0
 62
     7
  6
CONTINUOUS
  0
LAYER
  2
COIL_PF3U
 70
     0
 62
     7
  6
CONTINUOUS
  0
LAYER
  2
COIL_PF3L
 70
     0
 62
     7
  6
CONTINUOUS
  0
LAYER
  2
STAR_VESSEL
 70
     0
 62
     7
  6
CONTINUOUS
  0
LAYER
  2
COIL_CS1M
 70
     0
 62
     7
  6
CONTINUOUS
  0
LAYER
  2
COIL_CS2U
 70
     0
 62
     7
  6
CONTINUOUS
  0
LAYER
  2
COIL_CS2L
 70
     0
 62
     7
  6
CONTINUOUS
  0
LAYER
  2
COIL_CS3U
 70
     0
 62
     7
  6
CONTINUOUS
  0
LAYER
  2
COIL_CS3L
 70
     0
 62
     7
  6
CONTINUOUS
  0
LAYER
  2
COIL_CS4U
 70
     0
 62
     7
  6
CONTINUOUS
  0
LAYER
  2
COIL_CS4L
 70
     0
 62
     7
  6
CONTINUOUS
  0
ENDTAB
  0
TABLE
  2
STYLE
 70
     2
  0
STYLE
  2
STANDARD
 70
     0
 40
0.0
 41
1.0
 50
0.0
 71
     0
 42
2.5
  3
txt
  4

  0
STYLE
  2
ANNOTATIVE
 70
     0
 40
0.0
 41
1.0
 50
0.0
 71
     0
 42
0.2
  3
txt
  4

  0
ENDTAB
  0
TABLE
  2
VIEW
 70
     4
  0
ENDTAB
  0
TABLE
  2
UCS
 70
     0
  0
ENDTAB
  0
TABLE
  2
APPID
 70
    13
  0
APPID
  2
ACAD
 70
     0
  0
APPID
  2
ACADANNOTATIVE
 70
     0
  0
APPID
  2
HATCHBACKGROUNDCOLOR
 70
     0
  0
APPID
  2
EZDXF
 70
     0
  0
APPID
  2
ACAD_EXEMPT_FROM_CAD_STANDARDS
 70
     0
  0
APPID
  2
ACAD_PSEXT
 70
     0
  0
APPID
  2
ACAD_DSTYLE_DIMJAG
 70
     0
  0
APPID
  2
ACAD_DSTYLE_DIMTALN
 70
     0
  0
APPID
  2
ACAD_NAV_VCDISPLAY
 70
     0
  0
APPID
  2
ACAECLAYERSTANDARD
 70
     0
  0
APPID
  2
ACCMTRANSPARENCY
 70
     0
  0
APPID
  2
ACAD_DSTYLE_DIMBREAK
 70
     0
  0
APPID
  2
ACAD_MLEADERVER
 70
     0
  0
ENDTAB
  0
TABLE
  2
DIMSTYLE
 70
     4
  0
DIMSTYLE
  2
STANDARD
 70
     0
  3

  4

  5

  6

  7

 40
1.0
 41
2.5
 42
0.625
 43
3.75
 44
1.25
 45
0.0
 46
0.0
 47
0.0
 48
0.0
140
2.5
141
2.5
142
0.0
143
0.03937007874
144
1.0
145
0.0
146
1.0
147
0.625
 71
     0
 72
     0
 73
     0
 74
     0
 75
     0
 76
     0
 77
     1
 78
     8
170
     0
171
     3
172
     1
173
     0
174
     0
175
     0
176
     0
177
     0
178
     0
  0
DIMSTYLE
  2
ANNOTATIVE
 70
     0
  3

  4

  5

  6

  7

 40
0.0
 41
2.5
 42
0.625
 43
3.75
 44
1.25
 45
0.0
 46
0.0
 47
0.0
 48
0.0
140
2.5
141
2.5
142
0.0
143
0.03937007874016
144
1.0
145
0.0
146
1.0
147
0.625
 71
     0
 72
     0
 73
     0
 74
     0
 75
     0
 76
     0
 77
     1
 78
     8
170
     0
171
     3
172
     1
173
     0
174
     0
175
     0
176
     0
177
     0
178
     0
  0
DIMSTYLE
  2
ISO-25
 70
     0
  3

  4

  5

  6

  7

 40
1.0
 41
0.1
 42
0.1
 43
0.1
 44
0.1
 45
0.0
 46
0.0
 47
0.0
 48
0.0
140
0.1
141
2.5
142
0.0
143
0.03937007874016
144
1.0
145
0.0
146
1.0
147
0.1
 71
     0
 72
     0
 73
     0
 74
     0
 75
     0
 76
     0
 77
     1
 78
     8
170
     0
171
     3
172
     1
173
     0
174
     0
175
     0
176
     0
177
     0
178
     0
  0
ENDTAB
  0
ENDSEC
  0
SECTION
  2
BLOCKS
  0
BLOCK
  8
0
  2
$MODEL_SPACE
 70
     0
 10
0.0
 20
0.0
 30
0.0
  3
$MODEL_SPACE
  1

  0
ENDBLK
  5
8D6
  8
0
  0
BLOCK
 67
     1
  8
0
  2
$PAPER_SPACE
 70
     0
 10
0.0
 20
0.0
 30
0.0
  3
$PAPER_SPACE
  1

  0
ENDBLK
  5
8D2
 67
     1
  8
0
  0
ENDSEC
  0
SECTION
  2
ENTITIES
  0
LINE
  5
54
  8
AXES
 10
0.0
 20
0.0
 30
0.0
 11
7.152941176470585
 21
0.0
 31
0.0
  0
LINE
  5
55
  8
AXES
 10
0.0
 20
-5.1352543226269551
 30
0.0
 11
0.0
 21
5.1352543226269551
 31
0.0
  0
LINE
  5
56
  8
AXES
 10
4.0
 20
-5.1352543226269551
 30
0.0
 11
4.0
 21
5.1352543226269551
 31
0.0
  0
POLYLINE
  5
AE
  8
WALL_INNER
 66
     1
 10
0.0
 20
0.0
 30
0.0
 70
     1
  0
VERTEX
  5
A82
  8
WALL_INNER
 10
1.7374954995416789
 20
-1.216220234644191
 30
0.0
 42
0.0523862768088857
  0
VERTEX
  5
A83
  8
WALL_INNER
 10
2.0557870987718601
 20
-3.3950803377103922
 30
0.0
 42
-0.0370259992008033
  0
VERTEX
  5
A84
  8
WALL_INNER
 10
2.2321270796497181
 20
-4.388290906036671
 30
0.0
 42
-0.1614941074410814
  0
VERTEX
  5
A85
  8
WALL_INNER
 10
2.178083480303985
 20
-4.631649894158496
 30
0.0
 42
-0.1290091530606955
  0
VERTEX
  5
A86
  8
WALL_INNER
 10
2.0345536045152741
 20
-4.7723505614196604
 30
0.0
 42
1.022339322807964
  0
VERTEX
  5
A87
  8
WALL_INNER
 10
2.2221537165697081
 20
-5.0846522275801362
 30
0.0
  0
VERTEX
  5
A88
  8
WALL_INNER
 10
2.3001178904051351
 20
-5.0503546151899172
 30
0.0
 42
-0.3917837976382729
  0
VERTEX
  5
A89
  8
WALL_INNER
 10
2.3429299258528311
 20
-5.065132319907204
 30
0.0
  0
VERTEX
  5
A8A
  8
WALL_INNER
 10
2.8657289694283921
 20
-5.8059209204402551
 30
0.0
  0
VERTEX
  5
A8B
  8
WALL_INNER
 10
2.883115017090903
 20
-5.829587168327178
 30
0.0
  0
VERTEX
  5
A8C
  8
WALL_INNER
 10
3.110646429477629
 20
-5.7623905229340791
 30
0.0
  0
VERTEX
  5
A8D
  8
WALL_INNER
 10
3.110646429477629
 20
-5.2029603117273364
 30
0.0
  0
VERTEX
  5
A8E
  8
WALL_INNER
 10
3.110646429477629
 20
-5.128983798046419
 30
0.0
 42
-0.2622606590321011
  0
VERTEX
  5
A8F
  8
WALL_INNER
 10
3.213165812820125
 20
-4.94697397328832
 30
0.0
 42
-0.0809680658296501
  0
VERTEX
  5
A90
  8
WALL_INNER
 10
3.5579054573914162
 20
-4.80796969284438
 30
0.0
  0
VERTEX
  5
A91
  8
WALL_INNER
 10
3.5579054573914162
 20
-4.665692798381996
 30
0.0
 42
-0.2094353940936992
  0
VERTEX
  5
A92
  8
WALL_INNER
 10
3.739532833493783
 20
-4.2511004564760242
 30
0.0
 42
-0.0874360093409148
  0
VERTEX
  5
A93
  8
WALL_INNER
 10
3.9042828342057261
 20
-4.1453701149600306
 30
0.0
 42
0.0421984314302956
  0
VERTEX
  5
A94
  8
WALL_INNER
 10
4.2326479310914227
 20
-3.9460851115049982
 30
0.0
 42
0.0630539873527315
  0
VERTEX
  5
A95
  8
WALL_INNER
 10
5.1673177209304866
 20
-3.0961285907892471
 30
0.0
 42
0.0674436484104742
  0
VERTEX
  5
A96
  8
WALL_INNER
 10
5.827201617818945
 20
-2.0975305588190141
 30
0.0
 42
0.0560304275001003
  0
VERTEX
  5
A97
  8
WALL_INNER
 10
6.2153436559934114
 20
-0.9931854145272636
 30
0.0
 42
0.0872034866801337
  0
VERTEX
  5
A98
  8
WALL_INNER
 10
6.2153436559934114
 20
0.9931854145272607
 30
0.0
 42
0.0560304275001003
  0
VERTEX
  5
A99
  8
WALL_INNER
 10
5.827201617818945
 20
2.0975305588190141
 30
0.0
 42
0.0674436484104742
  0
VERTEX
  5
A9A
  8
WALL_INNER
 10
5.1673177209304866
 20
3.0961285907892471
 30
0.0
 42
0.0630539873527315
  0
VERTEX
  5
A9B
  8
WALL_INNER
 10
4.2326479310914227
 20
3.9460851115049982
 30
0.0
 42
0.0421984314302956
  0
VERTEX
  5
A9C
  8
WALL_INNER
 10
3.9042828342057261
 20
4.1453701149600324
 30
0.0
 42
-0.0874360093409148
  0
VERTEX
  5
A9D
  8
WALL_INNER
 10
3.739532833493783
 20
4.2511004564760233
 30
0.0
 42
-0.2094353940936992
  0
VERTEX
  5
A9E
  8
WALL_INNER
 10
3.5579054573914162
 20
4.665692798381996
 30
0.0
  0
VERTEX
  5
A9F
  8
WALL_INNER
 10
3.5579054573914162
 20
4.80796969284438
 30
0.0
 42
-0.0809680658296501
  0
VERTEX
  5
AA0
  8
WALL_INNER
 10
3.213165812820125
 20
4.94697397328832
 30
0.0
 42
-0.2622606590321011
  0
VERTEX
  5
AA1
  8
WALL_INNER
 10
3.110646429477629
 20
5.128983798046419
 30
0.0
  0
VERTEX
  5
AA2
  8
WALL_INNER
 10
3.110646429477629
 20
5.2029603117273364
 30
0.0
  0
VERTEX
  5
AA3
  8
WALL_INNER
 10
3.110646429477629
 20
5.7623905229340791
 30
0.0
  0
VERTEX
  5
AA4
  8
WALL_INNER
 10
2.883115017090903
 20
5.829587168327178
 30
0.0
  0
VERTEX
  5
AA5
  8
WALL_INNER
 10
2.8657289694283921
 20
5.8059209204402551
 30
0.0
  0
VERTEX
  5
AA6
  8
WALL_INNER
 10
2.3429299258528311
 20
5.065132319907204
 30
0.0
 42
-0.3917837976382729
  0
VERTEX
  5
AA7
  8
WALL_INNER
 10
2.3001178904051351
 20
5.050354615189911
 30
0.0
  0
VERTEX
  5
AA8
  8
WALL_INNER
 10
2.2221537165697081
 20
5.08465222758013
 30
0.0
 42
1.022339322807964
  0
VERTEX
  5
AA9
  8
WALL_INNER
 10
2.0345536045152741
 20
4.7723505614196551
 30
0.0
 42
-0.1290091530606955
  0
VERTEX
  5
AAA
  8
WALL_INNER
 10
2.178083480303985
 20
4.631649894158496
 30
0.0
 42
-0.1614941074410814
  0
VERTEX
  5
AAB
  8
WALL_INNER
 10
2.2321270796497181
 20
4.388290906036671
 30
0.0
 42
-0.0370259992008033
  0
VERTEX
  5
AAC
  8
WALL_INNER
 10
2.0557870987718601
 20
3.3950803377103922
 30
0.0
 42
0.0523862768088857
  0
VERTEX
  5
AAD
  8
WALL_INNER
 10
1.7374954995416789
 20
1.216220234644191
 30
0.0
 42
0.0323582435007922
  0
SEQEND
  5
AAE
  8
WALL_INNER
  0
POLYLINE
  5
AF
  8
WALL_OUTER
 66
     1
 10
0.0
 20
0.0
 30
0.0
 70
     1
  0
VERTEX
  5
AAF
  8
WALL_OUTER
 10
7.5156960459499258
 20
0.0000000000000036
 30
0.0
 42
-0.0687518723262012
  0
VERTEX
  5
AB0
  8
WALL_OUTER
 10
7.3481634707959982
 20
-1.380469953607643
 30
0.0
 42
-0.0740404683602935
  0
VERTEX
  5
AB1
  8
WALL_OUTER
 10
6.6809111661864771
 20
-2.947519496937955
 30
0.0
 42
-0.0789579277042184
  0
VERTEX
  5
AB2
  8
WALL_OUTER
 10
5.6503450735558971
 20
-4.194632427795109
 30
0.0
  0
VERTEX
  5
AB3
  8
WALL_OUTER
 10
5.6503450735558971
 20
-4.6225544970839101
 30
0.0
  0
VERTEX
  5
AB4
  8
WALL_OUTER
 10
3.885096705807471
 20
-4.6225544970839101
 30
0.0
  0
VERTEX
  5
AB5
  8
WALL_OUTER
 10
3.885096705807471
 20
-4.833800188304167
 30
0.0
  0
VERTEX
  5
AB6
  8
WALL_OUTER
 10
3.750941504838055
 20
-4.833800188304167
 30
0.0
  0
VERTEX
  5
AB7
  8
WALL_OUTER
 10
3.750941504838055
 20
-6.2312110053412644
 30
0.0
  0
VERTEX
  5
AB8
  8
WALL_OUTER
 10
2.3465200413825631
 20
-6.2312110053412644
 30
0.0
  0
VERTEX
  5
AB9
  8
WALL_OUTER
 10
2.3465200413825631
 20
-5.8682209942921881
 30
0.0
 42
0.4422743092055736
  0
VERTEX
  5
ABA
  8
WALL_OUTER
 10
2.3197177811489831
 20
-5.8379292467031991
 30
0.0
 42
-0.3732280578906664
  0
VERTEX
  5
ABB
  8
WALL_OUTER
 10
1.392707888369888
 20
-5.0115787701260963
 30
0.0
 42
-0.018900466636394
  0
VERTEX
  5
ABC
  8
WALL_OUTER
 10
1.0953260370393301
 20
-0.5388724918122998
 30
0.0
  0
VERTEX
  5
ABD
  8
WALL_OUTER
 10
1.0953260370393301
 20
0.0
 30
0.0
  0
VERTEX
  5
ABE
  8
WALL_OUTER
 10
1.0953260370393301
 20
0.5388724918122989
 30
0.0
 42
-0.018900466636394
  0
VERTEX
  5
ABF
  8
WALL_OUTER
 10
1.392707888369886
 20
5.0115787701260901
 30
0.0
 42
-0.3732280578906664
  0
VERTEX
  5
AC0
  8
WALL_OUTER
 10
2.3197177811489831
 20
5.837929246703192
 30
0.0
 42
0.4422743092055736
  0
VERTEX
  5
AC1
  8
WALL_OUTER
 10
2.3465200413825631
 20
5.8682209942921819
 30
0.0
  0
VERTEX
  5
AC2
  8
WALL_OUTER
 10
2.3465200413825631
 20
6.2312110053412644
 30
0.0
  0
VERTEX
  5
AC3
  8
WALL_OUTER
 10
3.750941504838055
 20
6.2312110053412644
 30
0.0
  0
VERTEX
  5
AC4
  8
WALL_OUTER
 10
3.750941504838055
 20
4.8338001883041661
 30
0.0
  0
VERTEX
  5
AC5
  8
WALL_OUTER
 10
3.885096705807471
 20
4.8338001883041661
 30
0.0
  0
VERTEX
  5
AC6
  8
WALL_OUTER
 10
3.885096705807471
 20
4.6225544970839101
 30
0.0
  0
VERTEX
  5
AC7
  8
WALL_OUTER
 10
5.6503450735558971
 20
4.6225544970839101
 30
0.0
  0
VERTEX
  5
AC8
  8
WALL_OUTER
 10
5.6503450735558971
 20
4.194632427795109
 30
0.0
 42
-0.0789579277042184
  0
VERTEX
  5
AC9
  8
WALL_OUTER
 10
6.6809111661864771
 20
2.9475194969379581
 30
0.0
 42
-0.0740404683602935
  0
VERTEX
  5
ACA
  8
WALL_OUTER
 10
7.3481634707959982
 20
1.380469953607643
 30
0.0
 42
-0.0687518723262012
  0
SEQEND
  5
ACB
  8
WALL_OUTER
  0
POLYLINE
  5
B0
  8
PLASMA_TARGET
 66
     1
 10
0.0
 20
0.0
 30
0.0
 70
     1
  0
VERTEX
  5
ACC
  8
PLASMA_TARGET
 10
1.9981407490384751
 20
0.0000000000000053
 30
0.0
 42
0.0162243155172499
  0
VERTEX
  5
ACD
  8
PLASMA_TARGET
 10
2.037104842259434
 20
-1.2004770470310091
 30
0.0
 42
0.0524753086762678
  0
VERTEX
  5
ACE
  8
PLASMA_TARGET
 10
2.3464806648141021
 20
-3.3209368911918671
 30
0.0
 42
-0.0036596069770715
  0
VERTEX
  5
ACF
  8
PLASMA_TARGET
 10
2.3715006348259031
 20
-3.4221192038485002
 30
0.0
 42
0.2125700414687611
  0
VERTEX
  5
AD0
  8
PLASMA_TARGET
 10
2.5537542024554121
 20
-3.6816548114234111
 30
0.0
 42
0.3162341319064286
  0
VERTEX
  5
AD1
  8
PLASMA_TARGET
 10
4.253386954061896
 20
-3.5575392688847911
 30
0.0
  0
VERTEX
  5
AD2
  8
PLASMA_TARGET
 10
4.418990792956766
 20
-3.4221192038485002
 30
0.0
 42
0.0390691010180639
  0
VERTEX
  5
AD3
  8
PLASMA_TARGET
 10
4.940346968624663
 20
-2.8999460637638861
 30
0.0
 42
0.0675497393411673
  0
VERTEX
  5
AD4
  8
PLASMA_TARGET
 10
5.5570578146663632
 20
-1.96706092396761
 30
0.0
 42
0.0556342861680169
  0
VERTEX
  5
AD5
  8
PLASMA_TARGET
 10
5.9212204204771934
 20
-0.9335524004051423
 30
0.0
 42
0.0431588453514294
  0
VERTEX
  5
AD6
  8
PLASMA_TARGET
 10
6.001952887060038
 20
0.0000000000000018
 30
0.0
 42
0.0431588453514294
  0
VERTEX
  5
AD7
  8
PLASMA_TARGET
 10
5.9212204204771934
 20
0.9335524004051423
 30
0.0
 42
0.0556342861680169
  0
VERTEX
  5
AD8
  8
PLASMA_TARGET
 10
5.5570578146663632
 20
1.96706092396761
 30
0.0
 42
0.0675497393411673
  0
VERTEX
  5
AD9
  8
PLASMA_TARGET
 10
4.940346968624663
 20
2.8999460637638861
 30
0.0
 42
0.0390691010180639
  0
VERTEX
  5
ADA
  8
PLASMA_TARGET
 10
4.418990792956766
 20
3.4221192038485002
 30
0.0
  0
VERTEX
  5
ADB
  8
PLASMA_TARGET
 10
4.2533869540618969
 20
3.5575392688847911
 30
0.0
 42
0.3162341319064286
  0
VERTEX
  5
ADC
  8
PLASMA_TARGET
 10
2.5537542024554121
 20
3.6816548114234111
 30
0.0
 42
0.2125700414687611
  0
VERTEX
  5
ADD
  8
PLASMA_TARGET
 10
2.3715006348259031
 20
3.4221192038485002
 30
0.0
 42
-0.0036596069770715
  0
VERTEX
  5
ADE
  8
PLASMA_TARGET
 10
2.3464806648141021
 20
3.3209368911918671
 30
0.0
 42
0.0524753086762678
  0
VERTEX
  5
ADF
  8
PLASMA_TARGET
 10
2.037104842259434
 20
1.2004770470310091
 30
0.0
 42
0.0162243155172499
  0
SEQEND
  5
AE0
  8
PLASMA_TARGET
  0
POLYLINE
  5
5FC
  8
STAR_VESSEL
 66
     1
 10
0.0
 20
0.0
 30
0.0
 70
     1
  0
VERTEX
  5
AE3
  8
STAR_VESSEL
 10
2.797220829201974
 20
6.608528388574217
 30
0.0
 42
-0.0266651027723161
  0
VERTEX
  5
AE4
  8
STAR_VESSEL
 10
3.111982319694476
 20
6.6615967454251681
 30
0.0
  0
VERTEX
  5
AE5
  8
STAR_VESSEL
 10
2.3798660877167062
 20
6.6615967454251681
 30
0.0
  0
VERTEX
  5
AE6
  8
STAR_VESSEL
 10
2.3798660877167062
 20
6.5032633744055932
 30
0.0
 42
-0.0017438141120984
  0
VERTEX
  5
AE7
  8
STAR_VESSEL
 10
2.3891224192385461
 20
6.505884577800348
 30
0.0
 42
-0.0130311338831869
  0
SEQEND
  5
AE8
  8
STAR_VESSEL
  0
POLYLINE
  5
5FD
  8
STAR_VESSEL
 66
     1
 10
0.0
 20
0.0
 30
0.0
 70
     1
  0
VERTEX
  5
AE9
  8
STAR_VESSEL
 10
2.3798660877167062
 20
6.6615967454251681
 30
0.0
  0
VERTEX
  5
AEA
  8
STAR_VESSEL
 10
2.0445538436986639
 20
6.6615967454251681
 30
0.0
  0
VERTEX
  5
AEB
  8
STAR_VESSEL
 10
2.0445538436986639
 20
6.3565182629623642
 30
0.0
 42
-0.0666400604559975
  0
VERTEX
  5
AEC
  8
STAR_VESSEL
 10
2.3798660877167062
 20
6.5032633744055932
 30
0.0
  0
SEQEND
  5
AED
  8
STAR_VESSEL
  0
POLYLINE
  5
5FE
  8
STAR_VESSEL
 66
     1
 10
0.0
 20
0.0
 30
0.0
 70
     1
  0
VERTEX
  5
AEE
  8
STAR_VESSEL
 10
2.3798660877167062
 20
7.4972680488997927
 30
0.0
  0
VERTEX
  5
AEF
  8
STAR_VESSEL
 10
2.0445538436986639
 20
7.4972680488997927
 30
0.0
  0
VERTEX
  5
AF0
  8
STAR_VESSEL
 10
2.0445538436986639
 20
6.6615967454251681
 30
0.0
  0
VERTEX
  5
AF1
  8
STAR_VESSEL
 10
2.3798660877167062
 20
6.6615967454251681
 30
0.0
  0
SEQEND
  5
AF2
  8
STAR_VESSEL
  0
POLYLINE
  5
5FF
  8
STAR_VESSEL
 66
     1
 10
0.0
 20
0.0
 30
0.0
 70
     1
  0
VERTEX
  5
AF3
  8
STAR_VESSEL
 10
3.1199530203365242
 20
7.4972680488997927
 30
0.0
  0
VERTEX
  5
AF4
  8
STAR_VESSEL
 10
2.3798660877167062
 20
7.4972680488997927
 30
0.0
  0
VERTEX
  5
AF5
  8
STAR_VESSEL
 10
2.3798660877167062
 20
6.6615967454251681
 30
0.0
  0
VERTEX
  5
AF6
  8
STAR_VESSEL
 10
3.1119823196944609
 20
6.6615967454251681
 30
0.0
  0
VERTEX
  5
AF7
  8
STAR_VESSEL
 10
3.1119823196944609
 20
6.9035871008421053
 30
0.0
  0
SEQEND
  5
AF8
  8
STAR_VESSEL
  0
POLYLINE
  5
600
  8
STAR_VESSEL
 66
     1
 10
0.0
 20
0.0
 30
0.0
 70
     1
  0
VERTEX
  5
AF9
  8
STAR_VESSEL
 10
3.9097503185294169
 20
7.4972680488997927
 30
0.0
  0
VERTEX
  5
AFA
  8
STAR_VESSEL
 10
3.1199530203365242
 20
7.4972680488997927
 30
0.0
  0
VERTEX
  5
AFB
  8
STAR_VESSEL
 10
3.1119823196944609
 20
6.9035871008420271
 30
0.0
  0
VERTEX
  5
AFC
  8
STAR_VESSEL
 10
3.1119823196944609
 20
6.6615967454251681
 30
0.0
 42
-0.0250070896666466
  0
VERTEX
  5
AFD
  8
STAR_VESSEL
 10
3.41075658709198
 20
6.6806564023490891
 30
0.0
 42
-0.0160383210579773
  0
VERTEX
  5
AFE
  8
STAR_VESSEL
 10
3.9097503185294169
 20
6.7003605389087211
 30
0.0
  0
SEQEND
  5
AFF
  8
STAR_VESSEL
  0
POLYLINE
  5
601
  8
STAR_VESSEL
 66
     1
 10
0.0
 20
0.0
 30
0.0
 70
     1
  0
VERTEX
  5
B00
  8
STAR_VESSEL
 10
4.8085610757940307
 20
7.4279830883395981
 30
0.0
 42
0.0352028563047001
  0
VERTEX
  5
B01
  8
STAR_VESSEL
 10
3.9097503185294169
 20
7.4972680488997927
 30
0.0
  0
VERTEX
  5
B02
  8
STAR_VESSEL
 10
3.9097503185294169
 20
6.7003605389087211
 30
0.0
 42
-0.0268357678579266
  0
VERTEX
  5
B03
  8
STAR_VESSEL
 10
4.7440510574370887
 20
6.6617337920688389
 30
0.0
  0
SEQEND
  5
B04
  8
STAR_VESSEL
  0
POLYLINE
  5
602
  8
STAR_VESSEL
 66
     1
 10
0.0
 20
0.0
 30
0.0
 70
     1
  0
VERTEX
  5
B05
  8
STAR_VESSEL
 10
5.9144318818165811
 20
7.16186521449678
 30
0.0
 42
0.0444499090390446
  0
VERTEX
  5
B06
  8
STAR_VESSEL
 10
4.8085610757940307
 20
7.4279830883395981
 30
0.0
  0
VERTEX
  5
B07
  8
STAR_VESSEL
 10
4.7440510574370887
 20
6.6617337920688389
 30
0.0
 42
-0.0055240417537952
  0
VERTEX
  5
B08
  8
STAR_VESSEL
 10
4.9150330170374872
 20
6.6426813192084451
 30
0.0
 42
-0.0357453439652866
  0
VERTEX
  5
B09
  8
STAR_VESSEL
 10
5.6266496661727228
 20
6.460789503089007
 30
0.0
  0
SEQEND
  5
B0A
  8
STAR_VESSEL
  0
POLYLINE
  5
603
  8
STAR_VESSEL
 66
     1
 10
0.0
 20
0.0
 30
0.0
 70
     1
  0
VERTEX
  5
B0B
  8
STAR_VESSEL
 10
7.099397348257936
 20
6.6231358150565951
 30
0.0
 42
0.0508994898259243
  0
VERTEX
  5
B0C
  8
STAR_VESSEL
 10
5.9144318818165811
 20
7.16186521449678
 30
0.0
  0
VERTEX
  5
B0D
  8
STAR_VESSEL
 10
5.6266496661727228
 20
6.460789503089007
 30
0.0
 42
-0.058226196260574
  0
VERTEX
  5
B0E
  8
STAR_VESSEL
 10
6.7078450633120923
 20
5.9543873146928643
 30
0.0
  0
SEQEND
  5
B0F
  8
STAR_VESSEL
  0
POLYLINE
  5
604
  8
STAR_VESSEL
 66
     1
 10
0.0
 20
0.0
 30
0.0
 70
     1
  0
VERTEX
  5
B10
  8
STAR_VESSEL
 10
8.5814037170064097
 20
5.4312668423865276
 30
0.0
 42
0.0745869036577438
  0
VERTEX
  5
B11
  8
STAR_VESSEL
 10
7.099397348257936
 20
6.6231358150565951
 30
0.0
  0
VERTEX
  5
B12
  8
STAR_VESSEL
 10
6.7078450633120923
 20
5.9543873146928661
 30
0.0
 42
-0.0382130024024736
  0
VERTEX
  5
B13
  8
STAR_VESSEL
 10
7.3418519683102943
 20
5.4914075786120771
 30
0.0
 42
-0.0364840540363575
  0
VERTEX
  5
B14
  8
STAR_VESSEL
 10
8.0621358189187475
 20
4.7962526464484094
 30
0.0
  0
SEQEND
  5
B15
  8
STAR_VESSEL
  0
POLYLINE
  5
605
  8
STAR_VESSEL
 66
     1
 10
0.0
 20
0.0
 30
0.0
 70
     1
  0
VERTEX
  5
B16
  8
STAR_VESSEL
 10
10.1715515988844807
 20
5.4312668423865276
 30
0.0
  0
VERTEX
  5
B17
  8
STAR_VESSEL
 10
8.5814037170064097
 20
5.4312668423865276
 30
0.0
  0
VERTEX
  5
B18
  8
STAR_VESSEL
 10
8.0621358189187475
 20
4.7962526464484068
 30
0.0
 42
-0.0247972001104111
  0
VERTEX
  5
B19
  8
STAR_VESSEL
 10
8.4905861863035454
 20
4.2671078623238641
 30
0.0
  0
VERTEX
  5
B1A
  8
STAR_VESSEL
 10
10.1715515988844807
 20
4.2671078623238641
 30
0.0
  0
SEQEND
  5
B1B
  8
STAR_VESSEL
  0
POLYLINE
  5
606
  8
STAR_VESSEL
 66
     1
 10
0.0
 20
0.0
 30
0.0
 70
     1
  0
VERTEX
  5
B1C
  8
STAR_VESSEL
 10
10.1715515988844807
 20
4.2671078623238641
 30
0.0
  0
VERTEX
  5
B1D
  8
STAR_VESSEL
 10
8.4905861863035454
 20
4.2671078623238641
 30
0.0
 42
-0.0396422748078178
  0
VERTEX
  5
B1E
  8
STAR_VESSEL
 10
9.0606347058509584
 20
3.3410849969222429
 30
0.0
  0
VERTEX
  5
B1F
  8
STAR_VESSEL
 10
10.1715515988844807
 20
3.3410849969222429
 30
0.0
  0
SEQEND
  5
B20
  8
STAR_VESSEL
  0
POLYLINE
  5
607
  8
STAR_VESSEL
 66
     1
 10
0.0
 20
0.0
 30
0.0
 70
     1
  0
VERTEX
  5
B21
  8
STAR_VESSEL
 10
10.1715515988844807
 20
3.3410849969222429
 30
0.0
  0
VERTEX
  5
B22
  8
STAR_VESSEL
 10
9.0606347058509584
 20
3.3410849969222429
 30
0.0
 42
-0.0008527107100982
  0
VERTEX
  5
B23
  8
STAR_VESSEL
 10
9.0712624001820288
 20
3.3202071093174581
 30
0.0
 42
-0.0308867441721896
  0
VERTEX
  5
B24
  8
STAR_VESSEL
 10
9.4422475819167868
 20
2.4550470378420881
 30
0.0
  0
VERTEX
  5
B25
  8
STAR_VESSEL
 10
10.1715515988844807
 20
2.4550470378420881
 30
0.0
  0
SEQEND
  5
B26
  8
STAR_VESSEL
  0
POLYLINE
  5
608
  8
STAR_VESSEL
 66
     1
 10
0.0
 20
0.0
 30
0.0
 70
     1
  0
VERTEX
  5
B27
  8
STAR_VESSEL
 10
10.1715515988844807
 20
2.4550470378420881
 30
0.0
  0
VERTEX
  5
B28
  8
STAR_VESSEL
 10
9.4422475819167815
 20
2.4550470378420881
 30
0.0
 42
-0.0566564751825497
  0
VERTEX
  5
B29
  8
STAR_VESSEL
 10
9.8352606934384355
 20
0.7776167337524971
 30
0.0
 42
-0.0091912459186413
  0
VERTEX
  5
B2A
  8
STAR_VESSEL
 10
9.8597790589182104
 20
0.5123359852850733
 30
0.0
  0
VERTEX
  5
B2B
  8
STAR_VESSEL
 10
10.1715515988844807
 20
0.5123359852850733
 30
0.0
  0
SEQEND
  5
B2C
  8
STAR_VESSEL
  0
POLYLINE
  5
609
  8
STAR_VESSEL
 66
     1
 10
0.0
 20
0.0
 30
0.0
 70
     1
  0
VERTEX
  5
B2D
  8
STAR_VESSEL
 10
10.1715515988844807
 20
0.5123359852850733
 30
0.0
  0
VERTEX
  5
B2E
  8
STAR_VESSEL
 10
9.8597790589182104
 20
0.5123359852850733
 30
0.0
 42
-0.0353928423806587
  0
VERTEX
  5
B2F
  8
STAR_VESSEL
 10
9.8628779462721656
 20
-0.5123359852850733
 30
0.0
  0
VERTEX
  5
B30
  8
STAR_VESSEL
 10
10.1715515988844807
 20
-0.5123359852850733
 30
0.0
  0
SEQEND
  5
B31
  8
STAR_VESSEL
  0
POLYLINE
  5
60A
  8
STAR_VESSEL
 66
     1
 10
0.0
 20
0.0
 30
0.0
 70
     1
  0
VERTEX
  5
B32
  8
STAR_VESSEL
 10
10.1715515988844807
 20
-0.5123359852850733
 30
0.0
  0
VERTEX
  5
B33
  8
STAR_VESSEL
 10
9.8628779462721656
 20
-0.5123359852850733
 30
0.0
 42
-0.0687763307180186
  0
VERTEX
  5
B34
  8
STAR_VESSEL
 10
9.4588094945788725
 20
-2.4550470378420881
 30
0.0
  0
VERTEX
  5
B35
  8
STAR_VESSEL
 10
10.1715515988844807
 20
-2.4550470378420881
 30
0.0
  0
SEQEND
  5
B36
  8
STAR_VESSEL
  0
POLYLINE
  5
60B
  8
STAR_VESSEL
 66
     1
 10
0.0
 20
0.0
 30
0.0
 70
     1
  0
VERTEX
  5
B37
  8
STAR_VESSEL
 10
10.1715515988844807
 20
-2.455047037842089
 30
0.0
  0
VERTEX
  5
B38
  8
STAR_VESSEL
 10
9.4588094945788725
 20
-2.4550470378420881
 30
0.0
 42
-0.0020990330949232
  0
VERTEX
  5
B39
  8
STAR_VESSEL
 10
9.4381398126013476
 20
-2.5122747157860501
 30
0.0
 42
-0.0301348144091132
  0
VERTEX
  5
B3A
  8
STAR_VESSEL
 10
9.0706300265868673
 20
-3.3410849969222429
 30
0.0
  0
VERTEX
  5
B3B
  8
STAR_VESSEL
 10
10.1715515988844807
 20
-3.341084996922246
 30
0.0
  0
SEQEND
  5
B3C
  8
STAR_VESSEL
  0
POLYLINE
  5
60C
  8
STAR_VESSEL
 66
     1
 10
0.0
 20
0.0
 30
0.0
 70
     1
  0
VERTEX
  5
B3D
  8
STAR_VESSEL
 10
10.1715515988844807
 20
-3.3410849969222429
 30
0.0
  0
VERTEX
  5
B3E
  8
STAR_VESSEL
 10
9.0706300265868673
 20
-3.3410849969222429
 30
0.0
 42
-0.0361137536305823
  0
VERTEX
  5
B3F
  8
STAR_VESSEL
 10
8.5031165342331718
 20
-4.2671078623238641
 30
0.0
  0
VERTEX
  5
B40
  8
STAR_VESSEL
 10
10.1715515988844807
 20
-4.2671078623238632
 30
0.0
  0
SEQEND
  5
B41
  8
STAR_VESSEL
  0
POLYLINE
  5
60D
  8
STAR_VESSEL
 66
     1
 10
0.0
 20
0.0
 30
0.0
 70
     1
  0
VERTEX
  5
B42
  8
STAR_VESSEL
 10
10.1715515988844807
 20
-4.2671078623238641
 30
0.0
  0
VERTEX
  5
B43
  8
STAR_VESSEL
 10
8.5031165342331718
 20
-4.2671078623238641
 30
0.0
 42
-0.0230129263933229
  0
VERTEX
  5
B44
  8
STAR_VESSEL
 10
8.0740745381668404
 20
-4.8108525403216431
 30
0.0
  0
VERTEX
  5
B45
  8
STAR_VESSEL
 10
8.5814037170064097
 20
-5.4312668423865347
 30
0.0
  0
VERTEX
  5
B46
  8
STAR_VESSEL
 10
10.1715515988844807
 20
-5.431266842386532
 30
0.0
  0
SEQEND
  5
B47
  8
STAR_VESSEL
  0
POLYLINE
  5
60E
  8
STAR_VESSEL
 66
     1
 10
0.0
 20
0.0
 30
0.0
 70
     1
  0
VERTEX
  5
B48
  8
STAR_VESSEL
 10
8.5814037170064097
 20
-5.431266842386532
 30
0.0
  0
VERTEX
  5
B49
  8
STAR_VESSEL
 10
8.0740745381668404
 20
-4.8108525403216413
 30
0.0
 42
-0.0280109763106635
  0
VERTEX
  5
B4A
  8
STAR_VESSEL
 10
7.4873095091692221
 20
-5.4159068466359788
 30
0.0
 42
-0.040440245897902
  0
VERTEX
  5
B4B
  8
STAR_VESSEL
 10
6.7162751063476804
 20
-5.9687853372681507
 30
0.0
  0
VERTEX
  5
B4C
  8
STAR_VESSEL
 10
7.099397348257936
 20
-6.6231358150565951
 30
0.0
 42
0.0745869036577438
  0
SEQEND
  5
B4D
  8
STAR_VESSEL
  0
POLYLINE
  5
60F
  8
STAR_VESSEL
 66
     1
 10
0.0
 20
0.0
 30
0.0
 70
     1
  0
VERTEX
  5
B4E
  8
STAR_VESSEL
 10
7.099397348257936
 20
-6.6231358150565933
 30
0.0
  0
VERTEX
  5
B4F
  8
STAR_VESSEL
 10
6.7162751063476804
 20
-5.9687853372681507
 30
0.0
 42
-0.0510409665635944
  0
VERTEX
  5
B50
  8
STAR_VESSEL
 10
5.633524592019084
 20
-6.4775377358379522
 30
0.0
  0
VERTEX
  5
B51
  8
STAR_VESSEL
 10
5.9144318818165811
 20
-7.1618652144967827
 30
0.0
 42
0.0508994898259242
  0
SEQEND
  5
B52
  8
STAR_VESSEL
  0
POLYLINE
  5
610
  8
STAR_VESSEL
 66
     1
 10
0.0
 20
0.0
 30
0.0
 70
     1
  0
VERTEX
  5
B53
  8
STAR_VESSEL
 10
5.633524592019084
 20
-6.4775377358379469
 30
0.0
 42
-0.0390312410426561
  0
VERTEX
  5
B54
  8
STAR_VESSEL
 10
4.7483084099791437
 20
-6.7123025792496813
 30
0.0
  0
VERTEX
  5
B55
  8
STAR_VESSEL
 10
4.8085610757940307
 20
-7.4279830883395981
 30
0.0
 42
0.0444499090390446
  0
VERTEX
  5
B56
  8
STAR_VESSEL
 10
5.9144318818165811
 20
-7.1618652144967827
 30
0.0
  0
SEQEND
  5
B57
  8
STAR_VESSEL
  0
POLYLINE
  5
611
  8
STAR_VESSEL
 66
     1
 10
0.0
 20
0.0
 30
0.0
 70
     1
  0
VERTEX
  5
B58
  8
STAR_VESSEL
 10
4.7483084099791437
 20
-6.7123025792496813
 30
0.0
 42
-0.0023796790453735
  0
VERTEX
  5
B59
  8
STAR_VESSEL
 10
4.6932559018672588
 20
-6.7221190314061428
 30
0.0
 42
-0.0430389716275843
  0
VERTEX
  5
B5A
  8
STAR_VESSEL
 10
3.9097503185294169
 20
-6.7956473329812006
 30
0.0
  0
VERTEX
  5
B5B
  8
STAR_VESSEL
 10
3.9097503185294169
 20
-7.4972680488997927
 30
0.0
 42
0.0352028563047001
  0
VERTEX
  5
B5C
  8
STAR_VESSEL
 10
4.8085610757940307
 20
-7.4279830883395981
 30
0.0
  0
SEQEND
  5
B5D
  8
STAR_VESSEL
  0
POLYLINE
  5
612
  8
STAR_VESSEL
 66
     1
 10
0.0
 20
0.0
 30
0.0
 70
     1
  0
VERTEX
  5
B5E
  8
STAR_VESSEL
 10
3.9097503185294169
 20
-6.7956473329812042
 30
0.0
 42
-0.0437733007695829
  0
VERTEX
  5
B5F
  8
STAR_VESSEL
 10
3.1119823196944609
 20
-6.7317340545809401
 30
0.0
  0
VERTEX
  5
B60
  8
STAR_VESSEL
 10
3.1119823196944609
 20
-6.903587100842044
 30
0.0
  0
VERTEX
  5
B61
  8
STAR_VESSEL
 10
3.1199530203365242
 20
-7.4972680488997954
 30
0.0
  0
VERTEX
  5
B62
  8
STAR_VESSEL
 10
3.9097503185294169
 20
-7.4972680488997909
 30
0.0
  0
SEQEND
  5
B63
  8
STAR_VESSEL
  0
POLYLINE
  5
613
  8
STAR_VESSEL
 66
     1
 10
0.0
 20
0.0
 30
0.0
 70
     1
  0
VERTEX
  5
B64
  8
STAR_VESSEL
 10
3.1119823196944609
 20
-6.9035871008420733
 30
0.0
  0
VERTEX
  5
B65
  8
STAR_VESSEL
 10
3.1119823196944609
 20
-6.7317340545809374
 30
0.0
  0
VERTEX
  5
B66
  8
STAR_VESSEL
 10
2.3798660877167062
 20
-6.7317340545809401
 30
0.0
  0
VERTEX
  5
B67
  8
STAR_VESSEL
 10
2.3798660877167062
 20
-7.4972680488997927
 30
0.0
  0
VERTEX
  5
B68
  8
STAR_VESSEL
 10
3.1199530203365242
 20
-7.4972680488997954
 30
0.0
  0
SEQEND
  5
B69
  8
STAR_VESSEL
  0
POLYLINE
  5
614
  8
STAR_VESSEL
 66
     1
 10
0.0
 20
0.0
 30
0.0
 70
     1
  0
VERTEX
  5
B6A
  8
STAR_VESSEL
 10
2.3798660877167062
 20
-6.5447734798641921
 30
0.0
  0
VERTEX
  5
B6B
  8
STAR_VESSEL
 10
2.3798660877167062
 20
-6.7317340545809401
 30
0.0
  0
VERTEX
  5
B6C
  8
STAR_VESSEL
 10
3.1119823196944481
 20
-6.7317340545809401
 30
0.0
 42
-0.0413191431622138
  0
SEQEND
  5
B6D
  8
STAR_VESSEL
  0
POLYLINE
  5
615
  8
STAR_VESSEL
 66
     1
 10
0.0
 20
0.0
 30
0.0
 70
     1
  0
VERTEX
  5
B6E
  8
STAR_VESSEL
 10
2.3798660877167062
 20
-6.5447734798641921
 30
0.0
 42
-0.0122670912019195
  0
VERTEX
  5
B6F
  8
STAR_VESSEL
 10
2.1693642232627171
 20
-6.4662240093306202
 30
0.0
 42
-0.019004937652671
  0
VERTEX
  5
B70
  8
STAR_VESSEL
 10
2.0445538436986639
 20
-6.4094781335706861
 30
0.0
  0
VERTEX
  5
B71
  8
STAR_VESSEL
 10
2.0445538436986639
 20
-6.7317340545809401
 30
0.0
  0
VERTEX
  5
B72
  8
STAR_VESSEL
 10
2.3798660877167062
 20
-6.7317340545809401
 30
0.0
  0
SEQEND
  5
B73
  8
STAR_VESSEL
  0
POLYLINE
  5
616
  8
STAR_VESSEL
 66
     1
 10
0.0
 20
0.0
 30
0.0
 70
     1
  0
VERTEX
  5
B74
  8
STAR_VESSEL
 10
2.3798660877167062
 20
-6.7317340545809401
 30
0.0
  0
VERTEX
  5
B75
  8
STAR_VESSEL
 10
2.0445538436986639
 20
-6.7317340545809401
 30
0.0
  0
VERTEX
  5
B76
  8
STAR_VESSEL
 10
2.0445538436986639
 20
-7.4972680488997927
 30
0.0
  0
VERTEX
  5
B77
  8
STAR_VESSEL
 10
2.3798660877167062
 20
-7.4972680488997927
 30
0.0
  0
SEQEND
  5
B78
  8
STAR_VESSEL
  0
POLYLINE
  5
617
  8
STAR_VESSEL
 66
     1
 10
0.0
 20
0.0
 30
0.0
 70
     1
  0
VERTEX
  5
B79
  8
STAR_VESSEL
 10
0.9767468200150092
 20
-4.250610335688271
 30
0.0
 42
-0.0004876516179771
  0
VERTEX
  5
B7A
  8
STAR_VESSEL
 10
0.968540547121414
 20
-4.1725838985394237
 30
0.0
  0
VERTEX
  5
B7B
  8
STAR_VESSEL
 10
0.2434436007138316
 20
-4.1725838985394237
 30
0.0
  0
VERTEX
  5
B7C
  8
STAR_VESSEL
 10
0.2434436007138316
 20
-5.0001999699775972
 30
0.0
  0
VERTEX
  5
B7D
  8
STAR_VESSEL
 10
0.4326120367000357
 20
-5.0001999699775972
 30
0.0
  0
VERTEX
  5
B7E
  8
STAR_VESSEL
 10
0.4326120367000357
 20
-5.727332149497979
 30
0.0
  0
VERTEX
  5
B7F
  8
STAR_VESSEL
 10
0.6896250466084127
 20
-5.7273321494979772
 30
0.0
  0
VERTEX
  5
B80
  8
STAR_VESSEL
 10
0.6896250466084127
 20
-6.5340622291189554
 30
0.0
  0
VERTEX
  5
B81
  8
STAR_VESSEL
 10
1.383539843700575
 20
-6.5340622291189554
 30
0.0
  0
VERTEX
  5
B82
  8
STAR_VESSEL
 10
1.383539843700575
 20
-7.4972680488997954
 30
0.0
  0
VERTEX
  5
B83
  8
STAR_VESSEL
 10
2.0445538436986639
 20
-7.4972680488997927
 30
0.0
  0
VERTEX
  5
B84
  8
STAR_VESSEL
 10
2.0445538436986639
 20
-6.4094781335706861
 30
0.0
 42
-0.1775386078831113
  0
VERTEX
  5
B85
  8
STAR_VESSEL
 10
1.1936649790373011
 20
-5.5045956826859124
 30
0.0
 42
-0.0422934338675287
  0
SEQEND
  5
B86
  8
STAR_VESSEL
  0
POLYLINE
  5
618
  8
STAR_VESSEL
 66
     1
 10
0.0
 20
0.0
 30
0.0
 70
     1
  0
VERTEX
  5
B87
  8
STAR_VESSEL
 10
0.755262771046823
 20
-0.5168884161327691
 30
0.0
  0
VERTEX
  5
B88
  8
STAR_VESSEL
 10
0.2434436007138316
 20
-0.5168884161327691
 30
0.0
  0
VERTEX
  5
B89
  8
STAR_VESSEL
 10
0.2434436007138316
 20
-4.1725838985394272
 30
0.0
  0
VERTEX
  5
B8A
  8
STAR_VESSEL
 10
0.968540547121414
 20
-4.1725838985394237
 30
0.0
 42
-0.0227725706103599
  0
SEQEND
  5
B8B
  8
STAR_VESSEL
  0
POLYLINE
  5
619
  8
STAR_VESSEL
 66
     1
 10
0.0
 20
0.0
 30
0.0
 70
     1
  0
VERTEX
  5
B8C
  8
STAR_VESSEL
 10
0.7553800195812741
 20
0.5168884161327691
 30
0.0
  0
VERTEX
  5
B8D
  8
STAR_VESSEL
 10
0.2434436007138316
 20
0.5168884161327691
 30
0.0
  0
VERTEX
  5
B8E
  8
STAR_VESSEL
 10
0.2434436007138316
 20
-0.5168884161327691
 30
0.0
  0
VERTEX
  5
B8F
  8
STAR_VESSEL
 10
0.7552627710468161
 20
-0.5168884161327691
 30
0.0
 42
-0.0064257490933525
  0
SEQEND
  5
B90
  8
STAR_VESSEL
  0
POLYLINE
  5
61A
  8
STAR_VESSEL
 66
     1
 10
0.0
 20
0.0
 30
0.0
 70
     1
  0
VERTEX
  5
B91
  8
STAR_VESSEL
 10
0.9694920923060832
 20
4.1725838985394237
 30
0.0
  0
VERTEX
  5
B92
  8
STAR_VESSEL
 10
0.2434436007138316
 20
4.1725838985394237
 30
0.0
  0
VERTEX
  5
B93
  8
STAR_VESSEL
 10
0.2434436007138316
 20
0.5168884161327691
 30
0.0
  0
VERTEX
  5
B94
  8
STAR_VESSEL
 10
0.7553800195812741
 20
0.5168884161327691
 30
0.0
 42
-0.0227728736912863
  0
SEQEND
  5
B95
  8
STAR_VESSEL
  0
POLYLINE
  5
61B
  8
STAR_VESSEL
 66
     1
 10
0.0
 20
0.0
 30
0.0
 70
     1
  0
VERTEX
  5
B96
  8
STAR_VESSEL
 10
1.2772659998865661
 20
5.5964823927650258
 30
0.0
 42
-0.0469353856206851
  0
VERTEX
  5
B97
  8
STAR_VESSEL
 10
1.606895613944465
 20
6.0157051662082139
 30
0.0
 42
-0.05620714690238
  0
VERTEX
  5
B98
  8
STAR_VESSEL
 10
1.9265455746157709
 20
6.28405573366115
 30
0.0
  0
VERTEX
  5
B99
  8
STAR_VESSEL
 10
2.0445538436986639
 20
6.3565402293962974
 30
0.0
  0
VERTEX
  5
B9A
  8
STAR_VESSEL
 10
2.0445538436986639
 20
7.4972680488997927
 30
0.0
  0
VERTEX
  5
B9B
  8
STAR_VESSEL
 10
1.383539843700575
 20
7.4972680488997927
 30
0.0
  0
VERTEX
  5
B9C
  8
STAR_VESSEL
 10
1.383539843700575
 20
6.5340622291189554
 30
0.0
  0
VERTEX
  5
B9D
  8
STAR_VESSEL
 10
0.6896250466084127
 20
6.5340622291189554
 30
0.0
  0
VERTEX
  5
B9E
  8
STAR_VESSEL
 10
0.6896250466084127
 20
5.7273321494979772
 30
0.0
  0
VERTEX
  5
B9F
  8
STAR_VESSEL
 10
0.4326120367000357
 20
5.7273321494979772
 30
0.0
  0
VERTEX
  5
BA0
  8
STAR_VESSEL
 10
0.4326120367000357
 20
5.0001999699775972
 30
0.0
  0
VERTEX
  5
BA1
  8
STAR_VESSEL
 10
0.2434436007138316
 20
5.0001999699775972
 30
0.0
  0
VERTEX
  5
BA2
  8
STAR_VESSEL
 10
0.2434436007138316
 20
4.1725838985394237
 30
0.0
  0
VERTEX
  5
BA3
  8
STAR_VESSEL
 10
0.9694575645610255
 20
4.1725838985394237
 30
0.0
  0
VERTEX
  5
BA4
  8
STAR_VESSEL
 10
1.064903869206111
 20
5.0027526640541211
 30
0.0
 42
-0.1150161958251082
  0
SEQEND
  5
BA5
  8
STAR_VESSEL
  0
POLYLINE
  5
69D
  8
COIL_PF1U
 66
     1
 10
0.0
 20
0.0
 30
0.0
 70
     1
  0
VERTEX
  5
BA6
  8
COIL_PF1U
 10
11.67155159888447
 20
3.5
 30
0.0
  0
VERTEX
  5
BA7
  8
COIL_PF1U
 10
11.67155159888447
 20
2.5
 30
0.0
  0
VERTEX
  5
BA8
  8
COIL_PF1U
 10
11.17155159888447
 20
2.5
 30
0.0
  0
VERTEX
  5
BA9
  8
COIL_PF1U
 10
11.17155159888447
 20
3.5
 30
0.0
  0
SEQEND
  5
BAA
  8
COIL_PF1U
  0
POLYLINE
  5
69E
  8
COIL_PF2U
 66
     1
 10
0.0
 20
0.0
 30
0.0
 70
     1
  0
VERTEX
  5
BAB
  8
COIL_PF2U
 10
11.17155159888447
 20
5.9999999999999991
 30
0.0
  0
VERTEX
  5
BAC
  8
COIL_PF2U
 10
11.17155159888447
 20
4.9999999999999991
 30
0.0
  0
VERTEX
  5
BAD
  8
COIL_PF2U
 10
11.67155159888447
 20
4.9999999999999991
 30
0.0
  0
VERTEX
  5
BAE
  8
COIL_PF2U
 10
11.67155159888447
 20
5.9999999999999991
 30
0.0
  0
SEQEND
  5
BAF
  8
COIL_PF2U
  0
POLYLINE
  5
69F
  8
COIL_PF3U
 66
     1
 10
0.0
 20
0.0
 30
0.0
 70
     1
  0
VERTEX
  5
BB0
  8
COIL_PF3U
 10
9.9215515988844771
 20
6.9312668423865276
 30
0.0
  0
VERTEX
  5
BB1
  8
COIL_PF3U
 10
9.9215515988844771
 20
6.4312668423865276
 30
0.0
  0
VERTEX
  5
BB2
  8
COIL_PF3U
 10
9.4215515988844771
 20
6.4312668423865276
 30
0.0
  0
VERTEX
  5
BB3
  8
COIL_PF3U
 10
9.4215515988844771
 20
6.9312668423865276
 30
0.0
  0
SEQEND
  5
BB4
  8
COIL_PF3U
  0
POLYLINE
  5
6A0
  8
COIL_PF1L
 66
     1
 10
0.0
 20
0.0
 30
0.0
 70
     1
  0
VERTEX
  5
BB5
  8
COIL_PF1L
 10
11.67155159888447
 20
-3.5
 30
0.0
  0
VERTEX
  5
BB6
  8
COIL_PF1L
 10
11.67155159888447
 20
-2.5
 30
0.0
  0
VERTEX
  5
BB7
  8
COIL_PF1L
 10
11.17155159888447
 20
-2.5
 30
0.0
  0
VERTEX
  5
BB8
  8
COIL_PF1L
 10
11.17155159888447
 20
-3.5
 30
0.0
  0
SEQEND
  5
BB9
  8
COIL_PF1L
  0
POLYLINE
  5
6A1
  8
COIL_PF2L
 66
     1
 10
0.0
 20
0.0
 30
0.0
 70
     1
  0
VERTEX
  5
BBA
  8
COIL_PF2L
 10
11.17155159888447
 20
-5.9999999999999991
 30
0.0
  0
VERTEX
  5
BBB
  8
COIL_PF2L
 10
11.17155159888447
 20
-4.9999999999999991
 30
0.0
  0
VERTEX
  5
BBC
  8
COIL_PF2L
 10
11.67155159888447
 20
-4.9999999999999991
 30
0.0
  0
VERTEX
  5
BBD
  8
COIL_PF2L
 10
11.67155159888447
 20
-5.9999999999999991
 30
0.0
  0
SEQEND
  5
BBE
  8
COIL_PF2L
  0
POLYLINE
  5
6A2
  8
COIL_PF3L
 66
     1
 10
0.0
 20
0.0
 30
0.0
 70
     1
  0
VERTEX
  5
BBF
  8
COIL_PF3L
 10
9.9215515988844771
 20
-6.9312668423865276
 30
0.0
  0
VERTEX
  5
BC0
  8
COIL_PF3L
 10
9.9215515988844771
 20
-6.4312668423865276
 30
0.0
  0
VERTEX
  5
BC1
  8
COIL_PF3L
 10
9.4215515988844771
 20
-6.4312668423865276
 30
0.0
  0
VERTEX
  5
BC2
  8
COIL_PF3L
 10
9.4215515988844771
 20
-6.9312668423865276
 30
0.0
  0
SEQEND
  5
BC3
  8
COIL_PF3L
  0
POLYLINE
  5
A56
  8
COIL_CS4L
 66
     1
 10
0.0
 20
0.0
 30
0.0
 70
     1
  0
VERTEX
  5
C06
  8
COIL_CS4L
 10
1.3835398437005739
 20
-6.5340622291189554
 30
0.0
  0
VERTEX
  5
C07
  8
COIL_CS4L
 10
0.6896250466084127
 20
-6.5340622291189554
 30
0.0
  0
VERTEX
  5
C08
  8
COIL_CS4L
 10
-0.0000000000000005
 20
-6.5340622291189572
 30
0.0
  0
VERTEX
  5
C09
  8
COIL_CS4L
 10
-0.0000000000000005
 20
-7.4972680488997963
 30
0.0
  0
VERTEX
  5
C0A
  8
COIL_CS4L
 10
1.383539843700575
 20
-7.4972680488997936
 30
0.0
  0
SEQEND
  5
C0B
  8
COIL_CS4L
  0
POLYLINE
  5
A57
  8
COIL_CS3L
 66
     1
 10
0.0
 20
0.0
 30
0.0
 70
     1
  0
VERTEX
  5
C0C
  8
COIL_CS3L
 10
0.6896250466084127
 20
-5.7273321494979772
 30
0.0
  0
VERTEX
  5
C0D
  8
COIL_CS3L
 10
0.4326120367000357
 20
-5.7273321494979772
 30
0.0
  0
VERTEX
  5
C0E
  8
COIL_CS3L
 10
-0.0000000000000004
 20
-5.7273321494979772
 30
0.0
  0
VERTEX
  5
C0F
  8
COIL_CS3L
 10
-0.0000000000000004
 20
-6.5340622291189554
 30
0.0
  0
VERTEX
  5
C10
  8
COIL_CS3L
 10
0.6896250466084127
 20
-6.5340622291189554
 30
0.0
  0
SEQEND
  5
C11
  8
COIL_CS3L
  0
POLYLINE
  5
A58
  8
COIL_CS2L
 66
     1
 10
0.0
 20
0.0
 30
0.0
 70
     1
  0
VERTEX
  5
C12
  8
COIL_CS2L
 10
0.4326120367000358
 20
-5.0001999699775972
 30
0.0
  0
VERTEX
  5
C13
  8
COIL_CS2L
 10
-0.0000000000000004
 20
-5.0001999699775972
 30
0.0
  0
VERTEX
  5
C14
  8
COIL_CS2L
 10
-0.0000000000000004
 20
-5.7273321494979772
 30
0.0
  0
VERTEX
  5
C15
  8
COIL_CS2L
 10
0.4326120367000356
 20
-5.7273321494979772
 30
0.0
  0
SEQEND
  5
C16
  8
COIL_CS2L
  0
POLYLINE
  5
A59
  8
COIL_CS4U
 66
     1
 10
0.0
 20
0.0
 30
0.0
 70
     1
  0
VERTEX
  5
C17
  8
COIL_CS4U
 10
1.383539843700575
 20
7.4972680488997927
 30
0.0
  0
VERTEX
  5
C18
  8
COIL_CS4U
 10
0.0000000000000005
 20
7.4972680488997927
 30
0.0
  0
VERTEX
  5
C19
  8
COIL_CS4U
 10
0.0000000000000005
 20
6.5340622291189554
 30
0.0
  0
VERTEX
  5
C1A
  8
COIL_CS4U
 10
0.6896250466084127
 20
6.5340622291189554
 30
0.0
  0
VERTEX
  5
C1B
  8
COIL_CS4U
 10
1.3835398437005739
 20
6.5340622291189554
 30
0.0
  0
SEQEND
  5
C1C
  8
COIL_CS4U
  0
POLYLINE
  5
A5A
  8
COIL_CS3U
 66
     1
 10
0.0
 20
0.0
 30
0.0
 70
     1
  0
VERTEX
  5
C1D
  8
COIL_CS3U
 10
0.6896250466084127
 20
6.5340622291189554
 30
0.0
  0
VERTEX
  5
C1E
  8
COIL_CS3U
 10
0.0000000000000005
 20
6.5340622291189554
 30
0.0
  0
VERTEX
  5
C1F
  8
COIL_CS3U
 10
0.0000000000000004
 20
5.7273321494979772
 30
0.0
  0
VERTEX
  5
C20
  8
COIL_CS3U
 10
0.4326120367000357
 20
5.7273321494979772
 30
0.0
  0
VERTEX
  5
C21
  8
COIL_CS3U
 10
0.6896250466084127
 20
5.7273321494979772
 30
0.0
  0
SEQEND
  5
C22
  8
COIL_CS3U
  0
POLYLINE
  5
A5B
  8
COIL_CS2U
 66
     1
 10
0.0
 20
0.0
 30
0.0
 70
     1
  0
VERTEX
  5
C23
  8
COIL_CS2U
 10
0.4326120367000356
 20
5.7273321494979772
 30
0.0
  0
VERTEX
  5
C24
  8
COIL_CS2U
 10
0.0000000000000004
 20
5.7273321494979772
 30
0.0
  0
VERTEX
  5
C25
  8
COIL_CS2U
 10
0.0000000000000004
 20
5.0001999699775972
 30
0.0
  0
VERTEX
  5
C26
  8
COIL_CS2U
 10
0.4326120367000358
 20
5.0001999699775972
 30
0.0
  0
SEQEND
  5
C27
  8
COIL_CS2U
  0
POLYLINE
  5
A5C
  8
COIL_CS1M
 66
     1
 10
0.0
 20
0.0
 30
0.0
 70
     1
  0
VERTEX
  5
C28
  8
COIL_CS1M
 10
0.2434436007135313
 20
5.0001999699775972
 30
0.0
  0
VERTEX
  5
C29
  8
COIL_CS1M
 10
0.0000000000000003
 20
5.0001999699775972
 30
0.0
  0
VERTEX
  5
C2A
  8
COIL_CS1M
 10
-0.0000000000000003
 20
-5.0001999699775972
 30
0.0
  0
VERTEX
  5
C2B
  8
COIL_CS1M
 10
0.2434436007141319
 20
-5.0001999699775972
 30
0.0
  0
SEQEND
  5
C2C
  8
COIL_CS1M
  0
VIEWPORT
  5
DB
 67
     1
  8
0
 10
260.4312021947432072
 20
132.1530663910349972
 30
0.0
 40
1134.3546886711799289
 41
478.2141444163547135
 68
     1
 69
     1
1001
ACAD
1000
MVIEW
1002
{
1070
    16
1010
0.0
1020
0.0
1030
0.0
1010
0.0
1020
0.0
1030
1.0
1040
0.0
1040
478.2141444163547135
1040
260.4312021947432072
1040
132.1530663910349972
1040
50.0
1040
0.0
1040
0.0
1070
     0
1070
  1000
1070
     1
1070
     1
1070
     0
1070
     0
1070
     0
1070
     0
1040
0.0
1040
0.0
1040
0.0
1040
0.5
1040
0.5
1040
0.5
1040
0.5
1070
     0
1002
{
1002
}
1002
}
  0
ENDSEC
  0
EOF
