  0
SECTION
  2
HEADER
  9
$ACADVER
  1
AC1009
  9
$INSBASE
 10
0.0
 20
0.0
 30
0.0
  9
$EXTMIN
 10
0.0
 20
-7.6826780322780834
 30
0.0
  9
$EXTMAX
 10
23.2594928088720501
 20
7.4972680488997954
 30
0.0
  9
$LIMMIN
 10
0.0
 20
0.0
  9
$LIMMAX
 10
420.0
 20
297.0
  9
$ORTHOMODE
 70
     0
  9
$REGENMODE
 70
     1
  9
$FILLMODE
 70
     1
  9
$QTEXTMODE
 70
     0
  9
$MIRRTEXT
 70
     1
  9
$DRAGMODE
 70
     2
  9
$LTSCALE
 40
1.0
  9
$OSMODE
 70
    37
  9
$ATTMODE
 70
     1
  9
$TEXTSIZE
 40
2.5
  9
$TRACEWID
 40
1.0
  9
$TEXTSTYLE
  7
STANDARD
  9
$CLAYER
  8
COIL_PF1U
  9
$CELTYPE
  6
BYLAYER
  9
$CECOLOR
 62
   256
  9
$DIMSCALE
 40
1.0
  9
$DIMASZ
 40
2.5
  9
$DIMEXO
 40
0.625
  9
$DIMDLI
 40
3.75
  9
$DIMRND
 40
0.0
  9
$DIMDLE
 40
0.0
  9
$DIMEXE
 40
1.25
  9
$DIMTP
 40
0.0
  9
$DIMTM
 40
0.0
  9
$DIMTXT
 40
2.5
  9
$DIMCEN
 40
2.5
  9
$DIMTSZ
 40
0.0
  9
$DIMTOL
 70
     0
  9
$DIMLIM
 70
     0
  9
$DIMTIH
 70
     0
  9
$DIMTOH
 70
     0
  9
$DIMSE1
 70
     0
  9
$DIMSE2
 70
     0
  9
$DIMTAD
 70
     1
  9
$DIMZIN
 70
     8
  9
$DIMBLK
  1

  9
$DIMASO
 70
     1
  9
$DIMSHO
 70
     1
  9
$DIMPOST
  1

  9
$DIMAPOST
  1

  9
$DIMALT
 70
     0
  9
$DIMALTD
 70
     3
  9
$DIMALTF
 40
0.03937007874
  9
$DIMLFAC
 40
1.0
  9
$DIMTOFL
 70
     1
  9
$DIMTVP
 40
0.0
  9
$DIMTIX
 70
     0
  9
$DIMSOXD
 70
     0
  9
$DIMSAH
 70
     0
  9
$DIMBLK1
  1

  9
$DIMBLK2
  1

  9
$DIMSTYLE
  2
STANDARD
  9
$DIMCLRD
 70
     0
  9
$DIMCLRE
 70
     0
  9
$DIMCLRT
 70
     0
  9
$DIMTFAC
 40
1.0
  9
$DIMGAP
 40
0.625
  9
$LUNITS
 70
     2
  9
$LUPREC
 70
     4
  9
$SKETCHINC
 40
1.0
  9
$FILLETRAD
 40
10.0
  9
$AUNITS
 70
     0
  9
$AUPREC
 70
     2
  9
$MENU
  1
.
  9
$ELEVATION
 40
0.0
  9
$PELEVATION
 40
0.0
  9
$THICKNESS
 40
0.0
  9
$LIMCHECK
 70
     0
  9
$BLIPMODE
 70
     0
  9
$CHAMFERA
 40
0.0
  9
$CHAMFERB
 40
0.0
  9
$SKPOLY
 70
     0
  9
$TDCREATE
 40
2458531.9039930561557412
  9
$TDUPDATE
 40
2461061.7328009260818362
  9
$TDINDWG
 40
0.0543981481
  9
$TDUSRTIMER
 40
0.0543981481
  9
$USRTIMER
 70
     1
  9
$ANGBASE
 50
0.0
  9
$ANGDIR
 70
     0
  9
$PDMODE
 70
     0
  9
$PDSIZE
 40
0.0
  9
$PLINEWID
 40
0.0
  9
$COORDS
 70
     1
  9
$SPLFRAME
 70
     0
  9
$SPLINETYPE
 70
     6
  9
$SPLINESEGS
 70
     8
  9
$ATTDIA
 70
     1
  9
$ATTREQ
 70
     1
  9
$HANDLING
 70
     1
  9
$HANDSEED
  5
866
  9
$SURFTAB1
 70
     6
  9
$SURFTAB2
 70
     6
  9
$SURFTYPE
 70
     6
  9
$SURFU
 70
     6
  9
$SURFV
 70
     6
  9
$UCSNAME
  2

  9
$UCSORG
 10
0.0
 20
0.0
 30
0.0
  9
$UCSXDIR
 10
1.0
 20
0.0
 30
0.0
  9
$UCSYDIR
 10
0.0
 20
1.0
 30
0.0
  9
$PUCSNAME
  2

  9
$PUCSORG
 10
0.0
 20
0.0
 30
0.0
  9
$PUCSXDIR
 10
1.0
 20
0.0
 30
0.0
  9
$PUCSYDIR
 10
0.0
 20
1.0
 30
0.0
  9
$USERI1
 70
     0
  9
$USERI2
 70
     0
  9
$USERI3
 70
     0
  9
$USERI4
 70
     0
  9
$USERI5
 70
     0
  9
$USERR1
 40
0.0
  9
$USERR2
 40
0.0
  9
$USERR3
 40
0.0
  9
$USERR4
 40
0.0
  9
$USERR5
 40
0.0
  9
$WORLDVIEW
 70
     1
  9
$SHADEDGE
 70
     3
  9
$SHADEDIF
 70
    70
  9
$TILEMODE
 70
     1
  9
$MAXACTVP
 70
    64
  9
$PLIMCHECK
 70
     0
  9
$PEXTMIN
 10
1.0000000000000000E+20
 20
1.0000000000000000E+20
 30
1.0000000000000000E+20
  9
$PEXTMAX
 10
-1.0000000000000000E+20
 20
-1.0000000000000000E+20
 30
-1.0000000000000000E+20
  9
$PLIMMIN
 10
0.0
 20
0.0
  9
$PLIMMAX
 10
420.0
 20
297.0
  9
$UNITMODE
 70
     0
  9
$VISRETAIN
 70
     1
  9
$PLINEGEN
 70
     0
  9
$PSLTSCALE
 70
     1
  0
ENDSEC
  0
SECTION
  2
TABLES
  0
TABLE
  2
VPORT
 70
     1
  0
VPORT
  2
*ACTIVE
 70
     0
 10
0.0
 20
0.0
 11
1.0
 21
1.0
 12
2.313342839400149
 22
-1.5329108656586921
 13
0.0
 23
0.0
 14
0.5
 24
0.5
 15
0.5
 25
0.5
 16
0.0
 26
0.0
 36
1.0
 17
0.0
 27
0.0
 37
0.0
 40
30.1157600261880702
 41
2.3720642768850428
 42
50.0
 43
0.0
 44
0.0
 50
0.0
 51
0.0
 71
     0
 72
  1000
 73
     1
 74
     3
 75
     0
 76
     1
 77
     0
 78
     0
  0
ENDTAB
  0
TABLE
  2
LTYPE
 70
     2
  0
LTYPE
  2
CONTINUOUS
 70
     0
  3
Solid line
 72
    65
 73
     0
 40
0.0
  0
ENDTAB
  0
TABLE
  2
LAYER
 70
    14
  0
LAYER
  2
0
 70
     0
 62
     7
  6
CONTINUOUS
  0
LAYER
  2
AXES
 70
     0
 62
     7
  6
CONTINUOUS
  0
LAYER
  2
DEFPOINTS
 70
     0
 62
     7
  6
CONTINUOUS
  0
LAYER
  2
WALL_OUTER
 70
     0
 62
     7
  6
CONTINUOUS
  0
LAYER
  2
WALL_INNER
 70
     0
 62
     7
  6
CONTINUOUS
  0
LAYER
  2
PLASMA_TARGET
 70
     0
 62
     7
  6
CONTINUOUS
  0
LAYER
  2
COIL_PF1U
 70
     0
 62
     7
  6
CONTINUOUS
  0
LAYER
  2
COIL_PF1L
 70
     0
 62
     7
  6
CONTINUOUS
  0
LAYER
  2
COIL_PF2U
 70
     0
 62
     7
  6
CONTINUOUS
  0
LAYER
  2
COIL_PF2L
 70
     0
 62
     7
  6
CONTINUOUS
  0
LAYER
  2
COIL_PF3U
 70
     0
 62
     7
  6
CONTINUOUS
  0
LAYER
  2
COIL_PF3L
 70
     0
 62
     7
  6
CONTINUOUS
  0
LAYER
  2
COIL_CS
 70
     0
 62
     7
  6
CONTINUOUS
  0
LAYER
  2
STAR_VESSEL
 70
     0
 62
     7
  6
CONTINUOUS
  0
ENDTAB
  0
TABLE
  2
STYLE
 70
     2
  0
STYLE
  2
STANDARD
 70
     0
 40
0.0
 41
1.0
 50
0.0
 71
     0
 42
2.5
  3
txt
  4

  0
STYLE
  2
ANNOTATIVE
 70
     0
 40
0.0
 41
1.0
 50
0.0
 71
     0
 42
0.2
  3
txt
  4

  0
ENDTAB
  0
TABLE
  2
VIEW
 70
     6
  0
ENDTAB
  0
TABLE
  2
UCS
 70
     0
  0
ENDTAB
  0
TABLE
  2
APPID
 70
    13
  0
APPID
  2
ACAD
 70
     0
  0
APPID
  2
ACADANNOTATIVE
 70
     0
  0
APPID
  2
HATCHBACKGROUNDCOLOR
 70
     0
  0
APPID
  2
EZDXF
 70
     0
  0
APPID
  2
ACAD_EXEMPT_FROM_CAD_STANDARDS
 70
     0
  0
APPID
  2
ACAD_PSEXT
 70
     0
  0
APPID
  2
ACAD_DSTYLE_DIMJAG
 70
     0
  0
APPID
  2
ACAD_DSTYLE_DIMTALN
 70
     0
  0
APPID
  2
ACAD_NAV_VCDISPLAY
 70
     0
  0
APPID
  2
ACAECLAYERSTANDARD
 70
     0
  0
APPID
  2
ACCMTRANSPARENCY
 70
     0
  0
APPID
  2
ACAD_DSTYLE_DIMBREAK
 70
     0
  0
APPID
  2
ACAD_MLEADERVER
 70
     0
  0
ENDTAB
  0
TABLE
  2
DIMSTYLE
 70
     4
  0
DIMSTYLE
  2
STANDARD
 70
     0
  3

  4

  5

  6

  7

 40
1.0
 41
2.5
 42
0.625
 43
3.75
 44
1.25
 45
0.0
 46
0.0
 47
0.0
 48
0.0
140
2.5
141
2.5
142
0.0
143
0.03937007874
144
1.0
145
0.0
146
1.0
147
0.625
 71
     0
 72
     0
 73
     0
 74
     0
 75
     0
 76
     0
 77
     1
 78
     8
170
     0
171
     3
172
     1
173
     0
174
     0
175
     0
176
     0
177
     0
178
     0
  0
DIMSTYLE
  2
ANNOTATIVE
 70
     0
  3

  4

  5

  6

  7

 40
0.0
 41
2.5
 42
0.625
 43
3.75
 44
1.25
 45
0.0
 46
0.0
 47
0.0
 48
0.0
140
2.5
141
2.5
142
0.0
143
0.03937007874016
144
1.0
145
0.0
146
1.0
147
0.625
 71
     0
 72
     0
 73
     0
 74
     0
 75
     0
 76
     0
 77
     1
 78
     8
170
     0
171
     3
172
     1
173
     0
174
     0
175
     0
176
     0
177
     0
178
     0
  0
DIMSTYLE
  2
ISO-25
 70
     0
  3

  4

  5

  6

  7

 40
1.0
 41
0.1
 42
0.1
 43
0.1
 44
0.1
 45
0.0
 46
0.0
 47
0.0
 48
0.0
140
0.1
141
2.5
142
0.0
143
0.03937007874016
144
1.0
145
0.0
146
1.0
147
0.1
 71
     0
 72
     0
 73
     0
 74
     0
 75
     0
 76
     0
 77
     1
 78
     8
170
     0
171
     3
172
     1
173
     0
174
     0
175
     0
176
     0
177
     0
178
     0
  0
ENDTAB
  0
ENDSEC
  0
SECTION
  2
BLOCKS
  0
BLOCK
  8
0
  2
$MODEL_SPACE
 70
     0
 10
0.0
 20
0.0
 30
0.0
  3
$MODEL_SPACE
  1

  0
ENDBLK
  5
5AB
  8
0
  0
BLOCK
 67
     1
  8
0
  2
$PAPER_SPACE
 70
     0
 10
0.0
 20
0.0
 30
0.0
  3
$PAPER_SPACE
  1

  0
ENDBLK
  5
5A7
 67
     1
  8
0
  0
ENDSEC
  0
SECTION
  2
ENTITIES
  0
LINE
  5
54
  8
AXES
 10
0.0
 20
0.0
 30
0.0
 11
7.152941176470585
 21
0.0
 31
0.0
  0
LINE
  5
55
  8
AXES
 10
0.0
 20
-5.1352543226269551
 30
0.0
 11
0.0
 21
5.1352543226269551
 31
0.0
  0
LINE
  5
56
  8
AXES
 10
4.0
 20
-5.1352543226269551
 30
0.0
 11
4.0
 21
5.1352543226269551
 31
0.0
  0
POLYLINE
  5
AE
  8
WALL_INNER
 66
     1
 10
0.0
 20
0.0
 30
0.0
 70
     1
  0
VERTEX
  5
6D6
  8
WALL_INNER
 10
1.73749549954168
 20
-1.216220234644191
 30
0.0
 42
0.0523862768088857
  0
VERTEX
  5
6D7
  8
WALL_INNER
 10
2.0557870987718601
 20
-3.3950803377103922
 30
0.0
 42
-0.0370259992008033
  0
VERTEX
  5
6D8
  8
WALL_INNER
 10
2.2321270796497181
 20
-4.388290906036671
 30
0.0
 42
-0.1614941074410814
  0
VERTEX
  5
6D9
  8
WALL_INNER
 10
2.178083480303985
 20
-4.631649894158496
 30
0.0
 42
-0.1290091530606955
  0
VERTEX
  5
6DA
  8
WALL_INNER
 10
2.0345536045152741
 20
-4.7723505614196604
 30
0.0
 42
1.022339322807964
  0
VERTEX
  5
6DB
  8
WALL_INNER
 10
2.2221537165697081
 20
-5.0846522275801362
 30
0.0
  0
VERTEX
  5
6DC
  8
WALL_INNER
 10
2.3001178904051351
 20
-5.0503546151899172
 30
0.0
 42
-0.3917837976382729
  0
VERTEX
  5
6DD
  8
WALL_INNER
 10
2.3429299258528311
 20
-5.065132319907204
 30
0.0
  0
VERTEX
  5
6DE
  8
WALL_INNER
 10
2.8657289694283921
 20
-5.8059209204402551
 30
0.0
  0
VERTEX
  5
6DF
  8
WALL_INNER
 10
2.883115017090903
 20
-5.829587168327178
 30
0.0
  0
VERTEX
  5
6E0
  8
WALL_INNER
 10
3.110646429477629
 20
-5.7623905229340791
 30
0.0
  0
VERTEX
  5
6E1
  8
WALL_INNER
 10
3.110646429477629
 20
-5.2029603117273364
 30
0.0
  0
VERTEX
  5
6E2
  8
WALL_INNER
 10
3.110646429477629
 20
-5.128983798046419
 30
0.0
 42
-0.2622606590321011
  0
VERTEX
  5
6E3
  8
WALL_INNER
 10
3.213165812820125
 20
-4.94697397328832
 30
0.0
 42
-0.0809680658296501
  0
VERTEX
  5
6E4
  8
WALL_INNER
 10
3.5579054573914162
 20
-4.80796969284438
 30
0.0
  0
VERTEX
  5
6E5
  8
WALL_INNER
 10
3.5579054573914162
 20
-4.665692798381996
 30
0.0
 42
-0.2094353940936992
  0
VERTEX
  5
6E6
  8
WALL_INNER
 10
3.739532833493783
 20
-4.2511004564760242
 30
0.0
 42
-0.0874360093409148
  0
VERTEX
  5
6E7
  8
WALL_INNER
 10
3.904282834205727
 20
-4.1453701149600306
 30
0.0
 42
0.0421984314302956
  0
VERTEX
  5
6E8
  8
WALL_INNER
 10
4.2326479310914227
 20
-3.9460851115049982
 30
0.0
 42
0.0630539873527315
  0
VERTEX
  5
6E9
  8
WALL_INNER
 10
5.1673177209304866
 20
-3.0961285907892471
 30
0.0
 42
0.0674436484104742
  0
VERTEX
  5
6EA
  8
WALL_INNER
 10
5.827201617818945
 20
-2.0975305588190141
 30
0.0
 42
0.0560304275001003
  0
VERTEX
  5
6EB
  8
WALL_INNER
 10
6.2153436559934114
 20
-0.9931854145272636
 30
0.0
 42
0.0872034866801337
  0
VERTEX
  5
6EC
  8
WALL_INNER
 10
6.2153436559934114
 20
0.9931854145272607
 30
0.0
 42
0.0560304275001003
  0
VERTEX
  5
6ED
  8
WALL_INNER
 10
5.827201617818945
 20
2.0975305588190141
 30
0.0
 42
0.0674436484104742
  0
VERTEX
  5
6EE
  8
WALL_INNER
 10
5.1673177209304866
 20
3.0961285907892471
 30
0.0
 42
0.0630539873527315
  0
VERTEX
  5
6EF
  8
WALL_INNER
 10
4.2326479310914227
 20
3.9460851115049982
 30
0.0
 42
0.0421984314302956
  0
VERTEX
  5
6F0
  8
WALL_INNER
 10
3.904282834205727
 20
4.1453701149600324
 30
0.0
 42
-0.0874360093409148
  0
VERTEX
  5
6F1
  8
WALL_INNER
 10
3.739532833493783
 20
4.2511004564760233
 30
0.0
 42
-0.2094353940936992
  0
VERTEX
  5
6F2
  8
WALL_INNER
 10
3.5579054573914162
 20
4.665692798381996
 30
0.0
  0
VERTEX
  5
6F3
  8
WALL_INNER
 10
3.5579054573914162
 20
4.80796969284438
 30
0.0
 42
-0.0809680658296501
  0
VERTEX
  5
6F4
  8
WALL_INNER
 10
3.213165812820125
 20
4.94697397328832
 30
0.0
 42
-0.2622606590321011
  0
VERTEX
  5
6F5
  8
WALL_INNER
 10
3.110646429477629
 20
5.128983798046419
 30
0.0
  0
VERTEX
  5
6F6
  8
WALL_INNER
 10
3.110646429477629
 20
5.2029603117273364
 30
0.0
  0
VERTEX
  5
6F7
  8
WALL_INNER
 10
3.110646429477629
 20
5.7623905229340791
 30
0.0
  0
VERTEX
  5
6F8
  8
WALL_INNER
 10
2.883115017090903
 20
5.829587168327178
 30
0.0
  0
VERTEX
  5
6F9
  8
WALL_INNER
 10
2.8657289694283921
 20
5.8059209204402551
 30
0.0
  0
VERTEX
  5
6FA
  8
WALL_INNER
 10
2.3429299258528311
 20
5.065132319907204
 30
0.0
 42
-0.3917837976382729
  0
VERTEX
  5
6FB
  8
WALL_INNER
 10
2.3001178904051351
 20
5.0503546151899119
 30
0.0
  0
VERTEX
  5
6FC
  8
WALL_INNER
 10
2.2221537165697081
 20
5.0846522275801309
 30
0.0
 42
1.022339322807964
  0
VERTEX
  5
6FD
  8
WALL_INNER
 10
2.0345536045152741
 20
4.772350561419656
 30
0.0
 42
-0.1290091530606955
  0
VERTEX
  5
6FE
  8
WALL_INNER
 10
2.178083480303985
 20
4.631649894158496
 30
0.0
 42
-0.1614941074410814
  0
VERTEX
  5
6FF
  8
WALL_INNER
 10
2.2321270796497181
 20
4.388290906036671
 30
0.0
 42
-0.0370259992008033
  0
VERTEX
  5
700
  8
WALL_INNER
 10
2.0557870987718601
 20
3.3950803377103922
 30
0.0
 42
0.0523862768088857
  0
VERTEX
  5
701
  8
WALL_INNER
 10
1.73749549954168
 20
1.216220234644191
 30
0.0
 42
0.0323582435007922
  0
SEQEND
  5
702
  8
WALL_INNER
  0
POLYLINE
  5
AF
  8
WALL_OUTER
 66
     1
 10
0.0
 20
0.0
 30
0.0
 70
     1
  0
VERTEX
  5
703
  8
WALL_OUTER
 10
7.5156960459499258
 20
0.0000000000000036
 30
0.0
 42
-0.0687518723262012
  0
VERTEX
  5
704
  8
WALL_OUTER
 10
7.3481634707959982
 20
-1.380469953607643
 30
0.0
 42
-0.0740404683602935
  0
VERTEX
  5
705
  8
WALL_OUTER
 10
6.6809111661864771
 20
-2.947519496937955
 30
0.0
 42
-0.0789579277042184
  0
VERTEX
  5
706
  8
WALL_OUTER
 10
5.6503450735558971
 20
-4.1946324277951099
 30
0.0
  0
VERTEX
  5
707
  8
WALL_OUTER
 10
5.6503450735558971
 20
-4.6225544970839101
 30
0.0
  0
VERTEX
  5
708
  8
WALL_OUTER
 10
3.885096705807471
 20
-4.6225544970839101
 30
0.0
  0
VERTEX
  5
709
  8
WALL_OUTER
 10
3.885096705807471
 20
-4.833800188304167
 30
0.0
  0
VERTEX
  5
70A
  8
WALL_OUTER
 10
3.750941504838055
 20
-4.833800188304167
 30
0.0
  0
VERTEX
  5
70B
  8
WALL_OUTER
 10
3.750941504838055
 20
-6.2312110053412644
 30
0.0
  0
VERTEX
  5
70C
  8
WALL_OUTER
 10
2.3465200413825631
 20
-6.2312110053412644
 30
0.0
  0
VERTEX
  5
70D
  8
WALL_OUTER
 10
2.3465200413825631
 20
-5.8682209942921881
 30
0.0
 42
0.4422743092055736
  0
VERTEX
  5
70E
  8
WALL_OUTER
 10
2.3197177811489831
 20
-5.8379292467031991
 30
0.0
 42
-0.3732280578906664
  0
VERTEX
  5
70F
  8
WALL_OUTER
 10
1.392707888369888
 20
-5.0115787701260963
 30
0.0
 42
-0.018900466636394
  0
VERTEX
  5
710
  8
WALL_OUTER
 10
1.0953260370393301
 20
-0.5388724918122998
 30
0.0
  0
VERTEX
  5
711
  8
WALL_OUTER
 10
1.0953260370393301
 20
0.0
 30
0.0
  0
VERTEX
  5
712
  8
WALL_OUTER
 10
1.0953260370393301
 20
0.5388724918122989
 30
0.0
 42
-0.018900466636394
  0
VERTEX
  5
713
  8
WALL_OUTER
 10
1.392707888369886
 20
5.011578770126091
 30
0.0
 42
-0.3732280578906664
  0
VERTEX
  5
714
  8
WALL_OUTER
 10
2.3197177811489831
 20
5.8379292467031929
 30
0.0
 42
0.4422743092055736
  0
VERTEX
  5
715
  8
WALL_OUTER
 10
2.3465200413825631
 20
5.8682209942921828
 30
0.0
  0
VERTEX
  5
716
  8
WALL_OUTER
 10
2.3465200413825631
 20
6.2312110053412644
 30
0.0
  0
VERTEX
  5
717
  8
WALL_OUTER
 10
3.750941504838055
 20
6.2312110053412644
 30
0.0
  0
VERTEX
  5
718
  8
WALL_OUTER
 10
3.750941504838055
 20
4.8338001883041661
 30
0.0
  0
VERTEX
  5
719
  8
WALL_OUTER
 10
3.885096705807471
 20
4.8338001883041661
 30
0.0
  0
VERTEX
  5
71A
  8
WALL_OUTER
 10
3.885096705807471
 20
4.6225544970839101
 30
0.0
  0
VERTEX
  5
71B
  8
WALL_OUTER
 10
5.6503450735558971
 20
4.6225544970839101
 30
0.0
  0
VERTEX
  5
71C
  8
WALL_OUTER
 10
5.6503450735558971
 20
4.194632427795109
 30
0.0
 42
-0.0789579277042184
  0
VERTEX
  5
71D
  8
WALL_OUTER
 10
6.6809111661864771
 20
2.9475194969379581
 30
0.0
 42
-0.0740404683602935
  0
VERTEX
  5
71E
  8
WALL_OUTER
 10
7.3481634707959982
 20
1.380469953607643
 30
0.0
 42
-0.0687518723262012
  0
SEQEND
  5
71F
  8
WALL_OUTER
  0
POLYLINE
  5
B0
  8
PLASMA_TARGET
 66
     1
 10
0.0
 20
0.0
 30
0.0
 70
     1
  0
VERTEX
  5
720
  8
PLASMA_TARGET
 10
1.9981407490384751
 20
0.0000000000000053
 30
0.0
 42
0.0162243155172499
  0
VERTEX
  5
721
  8
PLASMA_TARGET
 10
2.037104842259434
 20
-1.2004770470310091
 30
0.0
 42
0.0524753086762678
  0
VERTEX
  5
722
  8
PLASMA_TARGET
 10
2.3464806648141021
 20
-3.3209368911918671
 30
0.0
 42
-0.0036596069770715
  0
VERTEX
  5
723
  8
PLASMA_TARGET
 10
2.3715006348259031
 20
-3.4221192038485002
 30
0.0
 42
0.2125700414687611
  0
VERTEX
  5
724
  8
PLASMA_TARGET
 10
2.5537542024554121
 20
-3.6816548114234111
 30
0.0
 42
0.3162341319064286
  0
VERTEX
  5
725
  8
PLASMA_TARGET
 10
4.253386954061896
 20
-3.5575392688847911
 30
0.0
  0
VERTEX
  5
726
  8
PLASMA_TARGET
 10
4.418990792956766
 20
-3.4221192038485002
 30
0.0
 42
0.0390691010180639
  0
VERTEX
  5
727
  8
PLASMA_TARGET
 10
4.940346968624663
 20
-2.8999460637638861
 30
0.0
 42
0.0675497393411673
  0
VERTEX
  5
728
  8
PLASMA_TARGET
 10
5.5570578146663632
 20
-1.96706092396761
 30
0.0
 42
0.0556342861680169
  0
VERTEX
  5
729
  8
PLASMA_TARGET
 10
5.9212204204771934
 20
-0.9335524004051423
 30
0.0
 42
0.0431588453514294
  0
VERTEX
  5
72A
  8
PLASMA_TARGET
 10
6.0019528870600389
 20
0.0000000000000018
 30
0.0
 42
0.0431588453514294
  0
VERTEX
  5
72B
  8
PLASMA_TARGET
 10
5.9212204204771934
 20
0.9335524004051423
 30
0.0
 42
0.0556342861680169
  0
VERTEX
  5
72C
  8
PLASMA_TARGET
 10
5.5570578146663632
 20
1.96706092396761
 30
0.0
 42
0.0675497393411673
  0
VERTEX
  5
72D
  8
PLASMA_TARGET
 10
4.940346968624663
 20
2.8999460637638861
 30
0.0
 42
0.0390691010180639
  0
VERTEX
  5
72E
  8
PLASMA_TARGET
 10
4.418990792956766
 20
3.4221192038485002
 30
0.0
  0
VERTEX
  5
72F
  8
PLASMA_TARGET
 10
4.2533869540618978
 20
3.5575392688847911
 30
0.0
 42
0.3162341319064286
  0
VERTEX
  5
730
  8
PLASMA_TARGET
 10
2.5537542024554121
 20
3.6816548114234111
 30
0.0
 42
0.2125700414687611
  0
VERTEX
  5
731
  8
PLASMA_TARGET
 10
2.3715006348259031
 20
3.4221192038485002
 30
0.0
 42
-0.0036596069770715
  0
VERTEX
  5
732
  8
PLASMA_TARGET
 10
2.3464806648141021
 20
3.3209368911918671
 30
0.0
 42
0.0524753086762678
  0
VERTEX
  5
733
  8
PLASMA_TARGET
 10
2.037104842259434
 20
1.2004770470310091
 30
0.0
 42
0.0162243155172499
  0
SEQEND
  5
734
  8
PLASMA_TARGET
  0
POLYLINE
  5
5FC
  8
STAR_VESSEL
 66
     1
 10
0.0
 20
0.0
 30
0.0
 70
     1
  0
VERTEX
  5
77B
  8
STAR_VESSEL
 10
2.7972208292019749
 20
6.608528388574217
 30
0.0
 42
-0.0266651027723161
  0
VERTEX
  5
77C
  8
STAR_VESSEL
 10
3.111982319694476
 20
6.6615967454251681
 30
0.0
  0
VERTEX
  5
77D
  8
STAR_VESSEL
 10
2.3798660877167062
 20
6.6615967454251681
 30
0.0
  0
VERTEX
  5
77E
  8
STAR_VESSEL
 10
2.3798660877167062
 20
6.5032633744055941
 30
0.0
 42
-0.0017438141120984
  0
VERTEX
  5
77F
  8
STAR_VESSEL
 10
2.3891224192385461
 20
6.505884577800348
 30
0.0
 42
-0.0130311338831869
  0
SEQEND
  5
780
  8
STAR_VESSEL
  0
POLYLINE
  5
5FD
  8
STAR_VESSEL
 66
     1
 10
0.0
 20
0.0
 30
0.0
 70
     1
  0
VERTEX
  5
781
  8
STAR_VESSEL
 10
2.3798660877167062
 20
6.6615967454251681
 30
0.0
  0
VERTEX
  5
782
  8
STAR_VESSEL
 10
2.0445538436986652
 20
6.6615967454251681
 30
0.0
  0
VERTEX
  5
783
  8
STAR_VESSEL
 10
2.0445538436986652
 20
6.3565182629623642
 30
0.0
 42
-0.0666400604559975
  0
VERTEX
  5
784
  8
STAR_VESSEL
 10
2.3798660877167062
 20
6.5032633744055941
 30
0.0
  0
SEQEND
  5
785
  8
STAR_VESSEL
  0
POLYLINE
  5
5FE
  8
STAR_VESSEL
 66
     1
 10
0.0
 20
0.0
 30
0.0
 70
     1
  0
VERTEX
  5
786
  8
STAR_VESSEL
 10
2.3798660877167062
 20
7.4972680488997936
 30
0.0
  0
VERTEX
  5
787
  8
STAR_VESSEL
 10
2.0445538436986652
 20
7.4972680488997936
 30
0.0
  0
VERTEX
  5
788
  8
STAR_VESSEL
 10
2.0445538436986652
 20
6.6615967454251681
 30
0.0
  0
VERTEX
  5
789
  8
STAR_VESSEL
 10
2.3798660877167062
 20
6.6615967454251681
 30
0.0
  0
SEQEND
  5
78A
  8
STAR_VESSEL
  0
POLYLINE
  5
5FF
  8
STAR_VESSEL
 66
     1
 10
0.0
 20
0.0
 30
0.0
 70
     1
  0
VERTEX
  5
78B
  8
STAR_VESSEL
 10
3.1199530203365242
 20
7.4972680488997936
 30
0.0
  0
VERTEX
  5
78C
  8
STAR_VESSEL
 10
2.3798660877167062
 20
7.4972680488997936
 30
0.0
  0
VERTEX
  5
78D
  8
STAR_VESSEL
 10
2.3798660877167062
 20
6.6615967454251681
 30
0.0
  0
VERTEX
  5
78E
  8
STAR_VESSEL
 10
3.1119823196944618
 20
6.6615967454251681
 30
0.0
  0
VERTEX
  5
78F
  8
STAR_VESSEL
 10
3.1119823196944618
 20
6.9035871008421061
 30
0.0
  0
SEQEND
  5
790
  8
STAR_VESSEL
  0
POLYLINE
  5
600
  8
STAR_VESSEL
 66
     1
 10
0.0
 20
0.0
 30
0.0
 70
     1
  0
VERTEX
  5
791
  8
STAR_VESSEL
 10
3.9097503185294178
 20
7.4972680488997936
 30
0.0
  0
VERTEX
  5
792
  8
STAR_VESSEL
 10
3.1199530203365242
 20
7.4972680488997936
 30
0.0
  0
VERTEX
  5
793
  8
STAR_VESSEL
 10
3.1119823196944618
 20
6.9035871008420271
 30
0.0
  0
VERTEX
  5
794
  8
STAR_VESSEL
 10
3.1119823196944618
 20
6.6615967454251681
 30
0.0
 42
-0.0250070896666466
  0
VERTEX
  5
795
  8
STAR_VESSEL
 10
3.4107565870919809
 20
6.6806564023490891
 30
0.0
 42
-0.0160383210579773
  0
VERTEX
  5
796
  8
STAR_VESSEL
 10
3.9097503185294178
 20
6.7003605389087211
 30
0.0
  0
SEQEND
  5
797
  8
STAR_VESSEL
  0
POLYLINE
  5
601
  8
STAR_VESSEL
 66
     1
 10
0.0
 20
0.0
 30
0.0
 70
     1
  0
VERTEX
  5
798
  8
STAR_VESSEL
 10
4.8085610757940307
 20
7.4279830883395981
 30
0.0
 42
0.0352028563047001
  0
VERTEX
  5
799
  8
STAR_VESSEL
 10
3.9097503185294178
 20
7.4972680488997936
 30
0.0
  0
VERTEX
  5
79A
  8
STAR_VESSEL
 10
3.9097503185294178
 20
6.7003605389087211
 30
0.0
 42
-0.0268357678579266
  0
VERTEX
  5
79B
  8
STAR_VESSEL
 10
4.7440510574370904
 20
6.6617337920688398
 30
0.0
  0
SEQEND
  5
79C
  8
STAR_VESSEL
  0
POLYLINE
  5
602
  8
STAR_VESSEL
 66
     1
 10
0.0
 20
0.0
 30
0.0
 70
     1
  0
VERTEX
  5
79D
  8
STAR_VESSEL
 10
5.914431881816582
 20
7.1618652144967809
 30
0.0
 42
0.0444499090390446
  0
VERTEX
  5
79E
  8
STAR_VESSEL
 10
4.8085610757940307
 20
7.4279830883395981
 30
0.0
  0
VERTEX
  5
79F
  8
STAR_VESSEL
 10
4.7440510574370904
 20
6.6617337920688398
 30
0.0
 42
-0.0055240417537952
  0
VERTEX
  5
7A0
  8
STAR_VESSEL
 10
4.9150330170374872
 20
6.6426813192084451
 30
0.0
 42
-0.0357453439652866
  0
VERTEX
  5
7A1
  8
STAR_VESSEL
 10
5.6266496661727237
 20
6.460789503089007
 30
0.0
  0
SEQEND
  5
7A2
  8
STAR_VESSEL
  0
POLYLINE
  5
603
  8
STAR_VESSEL
 66
     1
 10
0.0
 20
0.0
 30
0.0
 70
     1
  0
VERTEX
  5
7A3
  8
STAR_VESSEL
 10
7.0993973482579369
 20
6.6231358150565951
 30
0.0
 42
0.0508994898259243
  0
VERTEX
  5
7A4
  8
STAR_VESSEL
 10
5.914431881816582
 20
7.1618652144967809
 30
0.0
  0
VERTEX
  5
7A5
  8
STAR_VESSEL
 10
5.6266496661727237
 20
6.460789503089007
 30
0.0
 42
-0.058226196260574
  0
VERTEX
  5
7A6
  8
STAR_VESSEL
 10
6.7078450633120923
 20
5.9543873146928643
 30
0.0
  0
SEQEND
  5
7A7
  8
STAR_VESSEL
  0
POLYLINE
  5
604
  8
STAR_VESSEL
 66
     1
 10
0.0
 20
0.0
 30
0.0
 70
     1
  0
VERTEX
  5
7A8
  8
STAR_VESSEL
 10
8.5814037170064097
 20
5.4312668423865293
 30
0.0
 42
0.0745869036577438
  0
VERTEX
  5
7A9
  8
STAR_VESSEL
 10
7.0993973482579369
 20
6.6231358150565951
 30
0.0
  0
VERTEX
  5
7AA
  8
STAR_VESSEL
 10
6.7078450633120923
 20
5.954387314692867
 30
0.0
 42
-0.0382130024024736
  0
VERTEX
  5
7AB
  8
STAR_VESSEL
 10
7.3418519683102943
 20
5.4914075786120771
 30
0.0
 42
-0.0364840540363575
  0
VERTEX
  5
7AC
  8
STAR_VESSEL
 10
8.0621358189187475
 20
4.7962526464484103
 30
0.0
  0
SEQEND
  5
7AD
  8
STAR_VESSEL
  0
POLYLINE
  5
605
  8
STAR_VESSEL
 66
     1
 10
0.0
 20
0.0
 30
0.0
 70
     1
  0
VERTEX
  5
7AE
  8
STAR_VESSEL
 10
10.1715515988844807
 20
5.4312668423865293
 30
0.0
  0
VERTEX
  5
7AF
  8
STAR_VESSEL
 10
8.5814037170064097
 20
5.4312668423865293
 30
0.0
  0
VERTEX
  5
7B0
  8
STAR_VESSEL
 10
8.0621358189187475
 20
4.7962526464484077
 30
0.0
 42
-0.0247972001104111
  0
VERTEX
  5
7B1
  8
STAR_VESSEL
 10
8.4905861863035454
 20
4.2671078623238641
 30
0.0
  0
VERTEX
  5
7B2
  8
STAR_VESSEL
 10
10.1715515988844807
 20
4.2671078623238641
 30
0.0
  0
SEQEND
  5
7B3
  8
STAR_VESSEL
  0
POLYLINE
  5
606
  8
STAR_VESSEL
 66
     1
 10
0.0
 20
0.0
 30
0.0
 70
     1
  0
VERTEX
  5
7B4
  8
STAR_VESSEL
 10
10.1715515988844807
 20
4.2671078623238641
 30
0.0
  0
VERTEX
  5
7B5
  8
STAR_VESSEL
 10
8.4905861863035454
 20
4.2671078623238641
 30
0.0
 42
-0.0396422748078178
  0
VERTEX
  5
7B6
  8
STAR_VESSEL
 10
9.0606347058509584
 20
3.3410849969222438
 30
0.0
  0
VERTEX
  5
7B7
  8
STAR_VESSEL
 10
10.1715515988844807
 20
3.3410849969222438
 30
0.0
  0
SEQEND
  5
7B8
  8
STAR_VESSEL
  0
POLYLINE
  5
607
  8
STAR_VESSEL
 66
     1
 10
0.0
 20
0.0
 30
0.0
 70
     1
  0
VERTEX
  5
7B9
  8
STAR_VESSEL
 10
10.1715515988844807
 20
3.3410849969222438
 30
0.0
  0
VERTEX
  5
7BA
  8
STAR_VESSEL
 10
9.0606347058509584
 20
3.3410849969222438
 30
0.0
 42
-0.0008527107100982
  0
VERTEX
  5
7BB
  8
STAR_VESSEL
 10
9.0712624001820288
 20
3.3202071093174581
 30
0.0
 42
-0.0308867441721896
  0
VERTEX
  5
7BC
  8
STAR_VESSEL
 10
9.4422475819167886
 20
2.4550470378420881
 30
0.0
  0
VERTEX
  5
7BD
  8
STAR_VESSEL
 10
10.1715515988844807
 20
2.4550470378420881
 30
0.0
  0
SEQEND
  5
7BE
  8
STAR_VESSEL
  0
POLYLINE
  5
608
  8
STAR_VESSEL
 66
     1
 10
0.0
 20
0.0
 30
0.0
 70
     1
  0
VERTEX
  5
7BF
  8
STAR_VESSEL
 10
10.1715515988844807
 20
2.4550470378420881
 30
0.0
  0
VERTEX
  5
7C0
  8
STAR_VESSEL
 10
9.4422475819167815
 20
2.4550470378420881
 30
0.0
 42
-0.0566564751825497
  0
VERTEX
  5
7C1
  8
STAR_VESSEL
 10
9.8352606934384355
 20
0.7776167337524971
 30
0.0
 42
-0.0091912459186413
  0
VERTEX
  5
7C2
  8
STAR_VESSEL
 10
9.8597790589182122
 20
0.5123359852850733
 30
0.0
  0
VERTEX
  5
7C3
  8
STAR_VESSEL
 10
10.1715515988844807
 20
0.5123359852850733
 30
0.0
  0
SEQEND
  5
7C4
  8
STAR_VESSEL
  0
POLYLINE
  5
609
  8
STAR_VESSEL
 66
     1
 10
0.0
 20
0.0
 30
0.0
 70
     1
  0
VERTEX
  5
7C5
  8
STAR_VESSEL
 10
10.1715515988844807
 20
0.5123359852850733
 30
0.0
  0
VERTEX
  5
7C6
  8
STAR_VESSEL
 10
9.8597790589182122
 20
0.5123359852850733
 30
0.0
 42
-0.0353928423806587
  0
VERTEX
  5
7C7
  8
STAR_VESSEL
 10
9.8628779462721639
 20
-0.5123359852850733
 30
0.0
  0
VERTEX
  5
7C8
  8
STAR_VESSEL
 10
10.1715515988844807
 20
-0.5123359852850733
 30
0.0
  0
SEQEND
  5
7C9
  8
STAR_VESSEL
  0
POLYLINE
  5
60A
  8
STAR_VESSEL
 66
     1
 10
0.0
 20
0.0
 30
0.0
 70
     1
  0
VERTEX
  5
7CA
  8
STAR_VESSEL
 10
10.1715515988844807
 20
-0.5123359852850733
 30
0.0
  0
VERTEX
  5
7CB
  8
STAR_VESSEL
 10
9.8628779462721639
 20
-0.5123359852850733
 30
0.0
 42
-0.0687763307180186
  0
VERTEX
  5
7CC
  8
STAR_VESSEL
 10
9.4588094945788725
 20
-2.4550470378420881
 30
0.0
  0
VERTEX
  5
7CD
  8
STAR_VESSEL
 10
10.1715515988844807
 20
-2.4550470378420881
 30
0.0
  0
SEQEND
  5
7CE
  8
STAR_VESSEL
  0
POLYLINE
  5
60B
  8
STAR_VESSEL
 66
     1
 10
0.0
 20
0.0
 30
0.0
 70
     1
  0
VERTEX
  5
7CF
  8
STAR_VESSEL
 10
10.1715515988844807
 20
-2.4550470378420899
 30
0.0
  0
VERTEX
  5
7D0
  8
STAR_VESSEL
 10
9.4588094945788725
 20
-2.4550470378420881
 30
0.0
 42
-0.0020990330949232
  0
VERTEX
  5
7D1
  8
STAR_VESSEL
 10
9.4381398126013494
 20
-2.5122747157860501
 30
0.0
 42
-0.0301348144091132
  0
VERTEX
  5
7D2
  8
STAR_VESSEL
 10
9.0706300265868691
 20
-3.3410849969222438
 30
0.0
  0
VERTEX
  5
7D3
  8
STAR_VESSEL
 10
10.1715515988844807
 20
-3.341084996922246
 30
0.0
  0
SEQEND
  5
7D4
  8
STAR_VESSEL
  0
POLYLINE
  5
60C
  8
STAR_VESSEL
 66
     1
 10
0.0
 20
0.0
 30
0.0
 70
     1
  0
VERTEX
  5
7D5
  8
STAR_VESSEL
 10
10.1715515988844807
 20
-3.3410849969222438
 30
0.0
  0
VERTEX
  5
7D6
  8
STAR_VESSEL
 10
9.0706300265868691
 20
-3.3410849969222438
 30
0.0
 42
-0.0361137536305823
  0
VERTEX
  5
7D7
  8
STAR_VESSEL
 10
8.5031165342331718
 20
-4.2671078623238641
 30
0.0
  0
VERTEX
  5
7D8
  8
STAR_VESSEL
 10
10.1715515988844807
 20
-4.2671078623238632
 30
0.0
  0
SEQEND
  5
7D9
  8
STAR_VESSEL
  0
POLYLINE
  5
60D
  8
STAR_VESSEL
 66
     1
 10
0.0
 20
0.0
 30
0.0
 70
     1
  0
VERTEX
  5
7DA
  8
STAR_VESSEL
 10
10.1715515988844807
 20
-4.2671078623238641
 30
0.0
  0
VERTEX
  5
7DB
  8
STAR_VESSEL
 10
8.5031165342331718
 20
-4.2671078623238641
 30
0.0
 42
-0.0230129263933229
  0
VERTEX
  5
7DC
  8
STAR_VESSEL
 10
8.0740745381668404
 20
-4.8108525403216431
 30
0.0
  0
VERTEX
  5
7DD
  8
STAR_VESSEL
 10
8.5814037170064097
 20
-5.4312668423865356
 30
0.0
  0
VERTEX
  5
7DE
  8
STAR_VESSEL
 10
10.1715515988844807
 20
-5.431266842386532
 30
0.0
  0
SEQEND
  5
7DF
  8
STAR_VESSEL
  0
POLYLINE
  5
60E
  8
STAR_VESSEL
 66
     1
 10
0.0
 20
0.0
 30
0.0
 70
     1
  0
VERTEX
  5
7E0
  8
STAR_VESSEL
 10
8.5814037170064097
 20
-5.431266842386532
 30
0.0
  0
VERTEX
  5
7E1
  8
STAR_VESSEL
 10
8.0740745381668404
 20
-4.8108525403216422
 30
0.0
 42
-0.0280109763106635
  0
VERTEX
  5
7E2
  8
STAR_VESSEL
 10
7.4873095091692221
 20
-5.4159068466359797
 30
0.0
 42
-0.040440245897902
  0
VERTEX
  5
7E3
  8
STAR_VESSEL
 10
6.7162751063476804
 20
-5.9687853372681507
 30
0.0
  0
VERTEX
  5
7E4
  8
STAR_VESSEL
 10
7.0993973482579369
 20
-6.6231358150565951
 30
0.0
 42
0.0745869036577438
  0
SEQEND
  5
7E5
  8
STAR_VESSEL
  0
POLYLINE
  5
60F
  8
STAR_VESSEL
 66
     1
 10
0.0
 20
0.0
 30
0.0
 70
     1
  0
VERTEX
  5
7E6
  8
STAR_VESSEL
 10
7.0993973482579369
 20
-6.6231358150565942
 30
0.0
  0
VERTEX
  5
7E7
  8
STAR_VESSEL
 10
6.7162751063476804
 20
-5.9687853372681507
 30
0.0
 42
-0.0510409665635944
  0
VERTEX
  5
7E8
  8
STAR_VESSEL
 10
5.6335245920190848
 20
-6.4775377358379522
 30
0.0
  0
VERTEX
  5
7E9
  8
STAR_VESSEL
 10
5.914431881816582
 20
-7.1618652144967827
 30
0.0
 42
0.0508994898259242
  0
SEQEND
  5
7EA
  8
STAR_VESSEL
  0
POLYLINE
  5
610
  8
STAR_VESSEL
 66
     1
 10
0.0
 20
0.0
 30
0.0
 70
     1
  0
VERTEX
  5
7EB
  8
STAR_VESSEL
 10
5.6335245920190848
 20
-6.4775377358379478
 30
0.0
 42
-0.0390312410426561
  0
VERTEX
  5
7EC
  8
STAR_VESSEL
 10
4.7483084099791446
 20
-6.7123025792496822
 30
0.0
  0
VERTEX
  5
7ED
  8
STAR_VESSEL
 10
4.8085610757940307
 20
-7.427983088339599
 30
0.0
 42
0.0444499090390446
  0
VERTEX
  5
7EE
  8
STAR_VESSEL
 10
5.914431881816582
 20
-7.1618652144967827
 30
0.0
  0
SEQEND
  5
7EF
  8
STAR_VESSEL
  0
POLYLINE
  5
611
  8
STAR_VESSEL
 66
     1
 10
0.0
 20
0.0
 30
0.0
 70
     1
  0
VERTEX
  5
7F0
  8
STAR_VESSEL
 10
4.7483084099791446
 20
-6.7123025792496822
 30
0.0
 42
-0.0023796790453735
  0
VERTEX
  5
7F1
  8
STAR_VESSEL
 10
4.6932559018672597
 20
-6.7221190314061436
 30
0.0
 42
-0.0430389716275843
  0
VERTEX
  5
7F2
  8
STAR_VESSEL
 10
3.9097503185294178
 20
-6.7956473329812024
 30
0.0
  0
VERTEX
  5
7F3
  8
STAR_VESSEL
 10
3.9097503185294178
 20
-7.4972680488997936
 30
0.0
 42
0.0352028563047001
  0
VERTEX
  5
7F4
  8
STAR_VESSEL
 10
4.8085610757940307
 20
-7.427983088339599
 30
0.0
  0
SEQEND
  5
7F5
  8
STAR_VESSEL
  0
POLYLINE
  5
612
  8
STAR_VESSEL
 66
     1
 10
0.0
 20
0.0
 30
0.0
 70
     1
  0
VERTEX
  5
7F6
  8
STAR_VESSEL
 10
3.9097503185294178
 20
-6.7956473329812042
 30
0.0
 42
-0.0437733007695829
  0
VERTEX
  5
7F7
  8
STAR_VESSEL
 10
3.1119823196944618
 20
-6.731734054580941
 30
0.0
  0
VERTEX
  5
7F8
  8
STAR_VESSEL
 10
3.1119823196944618
 20
-6.9035871008420449
 30
0.0
  0
VERTEX
  5
7F9
  8
STAR_VESSEL
 10
3.1199530203365242
 20
-7.4972680488997963
 30
0.0
  0
VERTEX
  5
7FA
  8
STAR_VESSEL
 10
3.9097503185294178
 20
-7.4972680488997918
 30
0.0
  0
SEQEND
  5
7FB
  8
STAR_VESSEL
  0
POLYLINE
  5
613
  8
STAR_VESSEL
 66
     1
 10
0.0
 20
0.0
 30
0.0
 70
     1
  0
VERTEX
  5
7FC
  8
STAR_VESSEL
 10
3.1119823196944618
 20
-6.9035871008420742
 30
0.0
  0
VERTEX
  5
7FD
  8
STAR_VESSEL
 10
3.1119823196944618
 20
-6.7317340545809383
 30
0.0
  0
VERTEX
  5
7FE
  8
STAR_VESSEL
 10
2.3798660877167062
 20
-6.7317340545809401
 30
0.0
  0
VERTEX
  5
7FF
  8
STAR_VESSEL
 10
2.3798660877167062
 20
-7.4972680488997936
 30
0.0
  0
VERTEX
  5
800
  8
STAR_VESSEL
 10
3.1199530203365242
 20
-7.4972680488997963
 30
0.0
  0
SEQEND
  5
801
  8
STAR_VESSEL
  0
POLYLINE
  5
614
  8
STAR_VESSEL
 66
     1
 10
0.0
 20
0.0
 30
0.0
 70
     1
  0
VERTEX
  5
802
  8
STAR_VESSEL
 10
2.3798660877167062
 20
-6.544773479864193
 30
0.0
  0
VERTEX
  5
803
  8
STAR_VESSEL
 10
2.3798660877167062
 20
-6.7317340545809401
 30
0.0
  0
VERTEX
  5
804
  8
STAR_VESSEL
 10
3.1119823196944481
 20
-6.7317340545809401
 30
0.0
 42
-0.0413191431622138
  0
SEQEND
  5
805
  8
STAR_VESSEL
  0
POLYLINE
  5
615
  8
STAR_VESSEL
 66
     1
 10
0.0
 20
0.0
 30
0.0
 70
     1
  0
VERTEX
  5
806
  8
STAR_VESSEL
 10
2.3798660877167062
 20
-6.544773479864193
 30
0.0
 42
-0.0122670912019195
  0
VERTEX
  5
807
  8
STAR_VESSEL
 10
2.1693642232627179
 20
-6.4662240093306202
 30
0.0
 42
-0.019004937652671
  0
VERTEX
  5
808
  8
STAR_VESSEL
 10
2.0445538436986652
 20
-6.4094781335706861
 30
0.0
  0
VERTEX
  5
809
  8
STAR_VESSEL
 10
2.0445538436986652
 20
-6.7317340545809401
 30
0.0
  0
VERTEX
  5
80A
  8
STAR_VESSEL
 10
2.3798660877167062
 20
-6.7317340545809401
 30
0.0
  0
SEQEND
  5
80B
  8
STAR_VESSEL
  0
POLYLINE
  5
616
  8
STAR_VESSEL
 66
     1
 10
0.0
 20
0.0
 30
0.0
 70
     1
  0
VERTEX
  5
80C
  8
STAR_VESSEL
 10
2.3798660877167062
 20
-6.7317340545809401
 30
0.0
  0
VERTEX
  5
80D
  8
STAR_VESSEL
 10
2.0445538436986652
 20
-6.7317340545809401
 30
0.0
  0
VERTEX
  5
80E
  8
STAR_VESSEL
 10
2.0445538436986652
 20
-7.4972680488997936
 30
0.0
  0
VERTEX
  5
80F
  8
STAR_VESSEL
 10
2.3798660877167062
 20
-7.4972680488997936
 30
0.0
  0
SEQEND
  5
810
  8
STAR_VESSEL
  0
POLYLINE
  5
617
  8
STAR_VESSEL
 66
     1
 10
0.0
 20
0.0
 30
0.0
 70
     1
  0
VERTEX
  5
811
  8
STAR_VESSEL
 10
0.9767468200150091
 20
-4.250610335688271
 30
0.0
 42
-0.0004876516179771
  0
VERTEX
  5
812
  8
STAR_VESSEL
 10
0.9685405471214139
 20
-4.1725838985394246
 30
0.0
  0
VERTEX
  5
813
  8
STAR_VESSEL
 10
0.2434436007138316
 20
-4.1725838985394246
 30
0.0
  0
VERTEX
  5
814
  8
STAR_VESSEL
 10
0.2434436007138316
 20
-5.0001999699775972
 30
0.0
  0
VERTEX
  5
815
  8
STAR_VESSEL
 10
0.4326120367000357
 20
-5.0001999699775972
 30
0.0
  0
VERTEX
  5
816
  8
STAR_VESSEL
 10
0.4326120367000357
 20
-5.7273321494979799
 30
0.0
  0
VERTEX
  5
817
  8
STAR_VESSEL
 10
0.6896250466084127
 20
-5.7273321494979781
 30
0.0
  0
VERTEX
  5
818
  8
STAR_VESSEL
 10
0.6896250466084127
 20
-6.5340622291189554
 30
0.0
  0
VERTEX
  5
819
  8
STAR_VESSEL
 10
1.383539843700575
 20
-6.5340622291189554
 30
0.0
  0
VERTEX
  5
81A
  8
STAR_VESSEL
 10
1.383539843700575
 20
-7.4972680488997963
 30
0.0
  0
VERTEX
  5
81B
  8
STAR_VESSEL
 10
2.0445538436986652
 20
-7.4972680488997936
 30
0.0
  0
VERTEX
  5
81C
  8
STAR_VESSEL
 10
2.0445538436986652
 20
-6.4094781335706861
 30
0.0
 42
-0.1775386078831113
  0
VERTEX
  5
81D
  8
STAR_VESSEL
 10
1.1936649790373011
 20
-5.5045956826859133
 30
0.0
 42
-0.0422934338675287
  0
SEQEND
  5
81E
  8
STAR_VESSEL
  0
POLYLINE
  5
618
  8
STAR_VESSEL
 66
     1
 10
0.0
 20
0.0
 30
0.0
 70
     1
  0
VERTEX
  5
81F
  8
STAR_VESSEL
 10
0.755262771046823
 20
-0.516888416132769
 30
0.0
  0
VERTEX
  5
820
  8
STAR_VESSEL
 10
0.2434436007138316
 20
-0.516888416132769
 30
0.0
  0
VERTEX
  5
821
  8
STAR_VESSEL
 10
0.2434436007138316
 20
-4.1725838985394272
 30
0.0
  0
VERTEX
  5
822
  8
STAR_VESSEL
 10
0.9685405471214139
 20
-4.1725838985394246
 30
0.0
 42
-0.0227725706103599
  0
SEQEND
  5
823
  8
STAR_VESSEL
  0
POLYLINE
  5
619
  8
STAR_VESSEL
 66
     1
 10
0.0
 20
0.0
 30
0.0
 70
     1
  0
VERTEX
  5
824
  8
STAR_VESSEL
 10
0.7553800195812741
 20
0.516888416132769
 30
0.0
  0
VERTEX
  5
825
  8
STAR_VESSEL
 10
0.2434436007138316
 20
0.516888416132769
 30
0.0
  0
VERTEX
  5
826
  8
STAR_VESSEL
 10
0.2434436007138316
 20
-0.516888416132769
 30
0.0
  0
VERTEX
  5
827
  8
STAR_VESSEL
 10
0.7552627710468159
 20
-0.516888416132769
 30
0.0
 42
-0.0064257490933525
  0
SEQEND
  5
828
  8
STAR_VESSEL
  0
POLYLINE
  5
61A
  8
STAR_VESSEL
 66
     1
 10
0.0
 20
0.0
 30
0.0
 70
     1
  0
VERTEX
  5
829
  8
STAR_VESSEL
 10
0.9694920923060834
 20
4.1725838985394246
 30
0.0
  0
VERTEX
  5
82A
  8
STAR_VESSEL
 10
0.2434436007138316
 20
4.1725838985394246
 30
0.0
  0
VERTEX
  5
82B
  8
STAR_VESSEL
 10
0.2434436007138316
 20
0.516888416132769
 30
0.0
  0
VERTEX
  5
82C
  8
STAR_VESSEL
 10
0.7553800195812741
 20
0.516888416132769
 30
0.0
 42
-0.0227728736912863
  0
SEQEND
  5
82D
  8
STAR_VESSEL
  0
POLYLINE
  5
61B
  8
STAR_VESSEL
 66
     1
 10
0.0
 20
0.0
 30
0.0
 70
     1
  0
VERTEX
  5
82E
  8
STAR_VESSEL
 10
1.2772659998865661
 20
5.5964823927650267
 30
0.0
 42
-0.0469353856206851
  0
VERTEX
  5
82F
  8
STAR_VESSEL
 10
1.6068956139444659
 20
6.0157051662082148
 30
0.0
 42
-0.05620714690238
  0
VERTEX
  5
830
  8
STAR_VESSEL
 10
1.926545574615772
 20
6.2840557336611509
 30
0.0
  0
VERTEX
  5
831
  8
STAR_VESSEL
 10
2.0445538436986652
 20
6.3565402293962983
 30
0.0
  0
VERTEX
  5
832
  8
STAR_VESSEL
 10
2.0445538436986652
 20
7.4972680488997936
 30
0.0
  0
VERTEX
  5
833
  8
STAR_VESSEL
 10
1.383539843700575
 20
7.4972680488997936
 30
0.0
  0
VERTEX
  5
834
  8
STAR_VESSEL
 10
1.383539843700575
 20
6.5340622291189554
 30
0.0
  0
VERTEX
  5
835
  8
STAR_VESSEL
 10
0.6896250466084127
 20
6.5340622291189554
 30
0.0
  0
VERTEX
  5
836
  8
STAR_VESSEL
 10
0.6896250466084127
 20
5.7273321494979772
 30
0.0
  0
VERTEX
  5
837
  8
STAR_VESSEL
 10
0.4326120367000357
 20
5.7273321494979772
 30
0.0
  0
VERTEX
  5
838
  8
STAR_VESSEL
 10
0.4326120367000357
 20
5.0001999699775972
 30
0.0
  0
VERTEX
  5
839
  8
STAR_VESSEL
 10
0.2434436007138316
 20
5.0001999699775972
 30
0.0
  0
VERTEX
  5
83A
  8
STAR_VESSEL
 10
0.2434436007138316
 20
4.1725838985394246
 30
0.0
  0
VERTEX
  5
83B
  8
STAR_VESSEL
 10
0.9694575645610257
 20
4.1725838985394246
 30
0.0
  0
VERTEX
  5
83C
  8
STAR_VESSEL
 10
1.0649038692061119
 20
5.0027526640541211
 30
0.0
 42
-0.1150161958251082
  0
SEQEND
  5
83D
  8
STAR_VESSEL
  0
POLYLINE
  5
68F
  8
COIL_CS
 66
     1
 10
0.0
 20
0.0
 30
0.0
 70
     1
  0
VERTEX
  5
841
  8
COIL_CS
 10
0.0000000000000004
 20
5.75
 30
0.0
  0
VERTEX
  5
842
  8
COIL_CS
 10
0.243443600713832
 20
5.75
 30
0.0
  0
VERTEX
  5
843
  8
COIL_CS
 10
0.2434436007138316
 20
0.0
 30
0.0
  0
VERTEX
  5
844
  8
COIL_CS
 10
0.243443600713832
 20
-5.75
 30
0.0
  0
VERTEX
  5
845
  8
COIL_CS
 10
0.0000000000000004
 20
-5.75
 30
0.0
  0
VERTEX
  5
846
  8
COIL_CS
 10
0.0
 20
0.0
 30
0.0
  0
SEQEND
  5
847
  8
COIL_CS
  0
POLYLINE
  5
69D
  8
COIL_PF1U
 66
     1
 10
0.0
 20
0.0
 30
0.0
 70
     1
  0
VERTEX
  5
848
  8
COIL_PF1U
 10
11.67155159888447
 20
3.5
 30
0.0
  0
VERTEX
  5
849
  8
COIL_PF1U
 10
11.67155159888447
 20
2.5
 30
0.0
  0
VERTEX
  5
84A
  8
COIL_PF1U
 10
11.17155159888447
 20
2.5
 30
0.0
  0
VERTEX
  5
84B
  8
COIL_PF1U
 10
11.17155159888447
 20
3.5
 30
0.0
  0
SEQEND
  5
84C
  8
COIL_PF1U
  0
POLYLINE
  5
69E
  8
COIL_PF2U
 66
     1
 10
0.0
 20
0.0
 30
0.0
 70
     1
  0
VERTEX
  5
84D
  8
COIL_PF2U
 10
11.17155159888447
 20
5.9999999999999991
 30
0.0
  0
VERTEX
  5
84E
  8
COIL_PF2U
 10
11.17155159888447
 20
4.9999999999999991
 30
0.0
  0
VERTEX
  5
84F
  8
COIL_PF2U
 10
11.67155159888447
 20
4.9999999999999991
 30
0.0
  0
VERTEX
  5
850
  8
COIL_PF2U
 10
11.67155159888447
 20
5.9999999999999991
 30
0.0
  0
SEQEND
  5
851
  8
COIL_PF2U
  0
POLYLINE
  5
69F
  8
COIL_PF3U
 66
     1
 10
0.0
 20
0.0
 30
0.0
 70
     1
  0
VERTEX
  5
852
  8
COIL_PF3U
 10
9.9215515988844771
 20
6.9312668423865293
 30
0.0
  0
VERTEX
  5
853
  8
COIL_PF3U
 10
9.9215515988844771
 20
6.4312668423865293
 30
0.0
  0
VERTEX
  5
854
  8
COIL_PF3U
 10
9.4215515988844771
 20
6.4312668423865293
 30
0.0
  0
VERTEX
  5
855
  8
COIL_PF3U
 10
9.4215515988844771
 20
6.9312668423865293
 30
0.0
  0
SEQEND
  5
856
  8
COIL_PF3U
  0
POLYLINE
  5
6A0
  8
COIL_PF1L
 66
     1
 10
0.0
 20
0.0
 30
0.0
 70
     1
  0
VERTEX
  5
857
  8
COIL_PF1L
 10
11.67155159888447
 20
-3.5
 30
0.0
  0
VERTEX
  5
858
  8
COIL_PF1L
 10
11.67155159888447
 20
-2.5
 30
0.0
  0
VERTEX
  5
859
  8
COIL_PF1L
 10
11.17155159888447
 20
-2.5
 30
0.0
  0
VERTEX
  5
85A
  8
COIL_PF1L
 10
11.17155159888447
 20
-3.5
 30
0.0
  0
SEQEND
  5
85B
  8
COIL_PF1L
  0
POLYLINE
  5
6A1
  8
COIL_PF2L
 66
     1
 10
0.0
 20
0.0
 30
0.0
 70
     1
  0
VERTEX
  5
85C
  8
COIL_PF2L
 10
11.17155159888447
 20
-5.9999999999999991
 30
0.0
  0
VERTEX
  5
85D
  8
COIL_PF2L
 10
11.17155159888447
 20
-4.9999999999999991
 30
0.0
  0
VERTEX
  5
85E
  8
COIL_PF2L
 10
11.67155159888447
 20
-4.9999999999999991
 30
0.0
  0
VERTEX
  5
85F
  8
COIL_PF2L
 10
11.67155159888447
 20
-5.9999999999999991
 30
0.0
  0
SEQEND
  5
860
  8
COIL_PF2L
  0
POLYLINE
  5
6A2
  8
COIL_PF3L
 66
     1
 10
0.0
 20
0.0
 30
0.0
 70
     1
  0
VERTEX
  5
861
  8
COIL_PF3L
 10
9.9215515988844771
 20
-6.9312668423865293
 30
0.0
  0
VERTEX
  5
862
  8
COIL_PF3L
 10
9.9215515988844771
 20
-6.4312668423865293
 30
0.0
  0
VERTEX
  5
863
  8
COIL_PF3L
 10
9.4215515988844771
 20
-6.4312668423865293
 30
0.0
  0
VERTEX
  5
864
  8
COIL_PF3L
 10
9.4215515988844771
 20
-6.9312668423865293
 30
0.0
  0
SEQEND
  5
865
  8
COIL_PF3L
  0
VIEWPORT
  5
DB
 67
     1
  8
0
 10
260.4312021947432072
 20
132.1530663910349972
 30
0.0
 40
1134.3546886711799289
 41
478.2141444163547135
 68
     1
 69
     1
1001
ACAD
1000
MVIEW
1002
{
1070
    16
1010
0.0
1020
0.0
1030
0.0
1010
0.0
1020
0.0
1030
1.0
1040
0.0
1040
478.2141444163547135
1040
260.4312021947432072
1040
132.1530663910349972
1040
50.0
1040
0.0
1040
0.0
1070
     0
1070
  1000
1070
     1
1070
     1
1070
     0
1070
     0
1070
     0
1070
     0
1040
0.0
1040
0.0
1040
0.0
1040
0.5
1040
0.5
1040
0.5
1040
0.5
1070
     0
1002
{
1002
}
1002
}
  0
ENDSEC
  0
EOF
